<?xml version="1.0" encoding="UTF-8"?>
<svg width="25px" height="26px" viewBox="0 0 25 26" version="1.1" xmlns="http://www.w3.org/2000/svg" xmlns:xlink="http://www.w3.org/1999/xlink">
    <!-- Generator: Sketch 49.3 (51167) - http://www.bohemiancoding.com/sketch -->
    <title>电话@2x</title>
    <desc>Created with Sketch.</desc>
    <defs></defs>
    <g id="销量管理" stroke="none" stroke-width="1" fill="none" fill-rule="evenodd">
        <g id="促销员信息" transform="translate(-322.000000, -238.000000)" fill="#00BFDB">
            <g id="电话" transform="translate(322.000000, 238.000000)">
                <path d="M5.85212198,19.1322144 C-0.0640624095,12.7296942 -1.76069001,5.02782542 1.99050469,1.59850615 C2.80106031,0.8578906 3.81876373,0.372220846 4.99810429,0.157167503 C5.08141329,0.124235347 5.16769474,0.0953600509 5.25747084,0.0726495907 C5.26389776,0.071257531 5.30547193,0.0609960621 5.31141683,0.0597630949 C7.21314365,-0.374161811 9.5021328,1.59568226 10.6357619,4.64190669 C11.3754205,6.62869412 11.4176373,8.56763446 10.7491971,9.82856217 C10.3938283,10.4981827 9.85485042,10.9416134 9.17576556,11.1132742 C9.17512287,11.1134333 9.10466772,11.1505814 9.08663216,11.1870931 C9.06152699,11.2377243 9.05570259,11.3991635 9.18138912,11.6915358 C9.79994039,12.5659482 10.4906339,13.4163774 11.2345503,14.2216641 C12.0441821,15.0972696 12.9134236,15.9149655 13.8190977,16.6515242 C13.8291397,16.6583652 13.8387399,16.6647289 13.8483,16.6708142 C13.9990917,16.7778437 14.0789462,16.7595083 14.1172266,16.7507979 C14.2510673,16.7202124 14.3946287,16.6002566 14.4778172,16.5148239 C14.7902059,15.7922256 15.4652337,15.2821749 16.3966155,15.0696273 C17.6495444,14.783738 19.2826258,15.0469566 20.8777481,15.7911517 C23.8045292,17.1577169 25.4261626,19.5226673 24.9025691,21.3700897 C24.8558132,21.5350686 24.8514349,21.5524893 24.804679,21.7134511 C24.416774,22.7610755 23.8926985,23.7140796 23.1041149,24.4349677 C22.3660229,25.1098382 21.4597061,25.5729964 20.4098279,25.8123909 L20.4101492,25.8123909 C16.2684386,26.757162 10.4182908,24.0727935 5.85212198,19.1322144 Z M15.9049412,17.183802 C15.8789554,17.2591066 15.8411797,17.330199 15.7942208,17.3942974 C15.7398431,17.4684893 15.2393756,18.1215536 14.4412341,18.3037949 C13.9379595,18.4187984 13.4329204,18.3256511 12.9737976,18.0354003 C12.924593,18.0100868 12.877594,17.9794881 12.8335625,17.9441207 C11.8424924,17.1435865 10.8932082,16.2535212 10.0111342,15.2984037 C9.20252631,14.4227635 8.4531083,13.4954234 7.78313148,12.5430877 C7.75570201,12.5038259 7.73176138,12.4622196 7.711871,12.4190635 C7.37193005,11.6848132 7.33635996,11.0339346 7.6066044,10.48582 C7.9607814,9.76710753 8.6916725,9.57620326 8.75996546,9.56066546 C8.83876503,9.5406372 9.07953482,9.47995635 9.28818325,9.08630571 C9.73290959,8.24650972 9.65491205,6.72106381 9.0893998,5.20106208 C8.23427407,2.9015081 6.56849523,1.41766851 5.63473033,1.63094561 C5.5980775,1.64072131 5.56314903,1.65502721 5.52914291,1.67052526 C5.46806823,1.69707065 5.40382552,1.71586702 5.33785845,1.72751043 C4.43761846,1.87760315 3.66522225,2.23509166 3.06698712,2.78149751 C0.0862780226,5.50840047 1.89586107,12.4985407 7.01823426,18.0456529 C11.1312912,22.4997547 16.4688895,25.0475557 19.9989098,24.2414581 C20.7699426,24.065575 21.4284904,23.7319694 21.956227,23.2487479 C22.5384616,22.7156942 23.0090535,21.9265252 23.2587258,21.1194739 C23.2798994,21.0513222 23.3074492,20.9665597 23.3436208,20.8333956 C23.5805007,19.9628817 22.3241589,18.2534858 20.1402277,17.2336342 C18.887495,16.6485627 17.6081749,16.4207015 16.7165567,16.6242029 C16.411063,16.6942223 16.0216368,16.8475736 15.9049412,17.183802 Z M17.829835,10.9283867 C17.3820539,10.9483496 17.0026611,10.5999651 16.9828361,10.1490696 C16.9681672,9.82692665 16.8301516,9.52977754 16.5937705,9.31312392 C16.3576692,9.09570559 16.051501,8.98409859 15.731743,8.99854753 C15.2842817,9.01931537 14.904729,8.67028691 14.8845842,8.2193914 C14.8641197,7.7683349 15.2099779,7.38674601 15.6581987,7.36585743 C16.4110688,7.33124437 17.1319232,7.59458537 17.688382,8.10601349 C18.2445211,8.61808558 18.5697549,9.31739018 18.6038092,10.0751748 C18.6217556,10.4752776 18.3508806,10.8218107 17.976444,10.9085849 C17.9293197,10.9194517 17.8797972,10.9260524 17.829835,10.9283867 Z M20.5071178,10.1230409 C20.060921,10.1432929 19.6826098,9.80043205 19.6624114,9.35714157 C19.5797455,7.54023206 18.0240325,6.12895688 16.193749,6.21083529 C15.7480701,6.23108734 15.3695996,5.88806824 15.3496801,5.4455293 C15.3294418,5.00239704 15.6761607,4.62694302 16.1210827,4.60684919 C18.8421264,4.4846249 21.1557366,6.58320404 21.2782017,9.28515186 C21.2964081,9.67836598 21.0262598,10.0181416 20.6530879,10.1034217 C20.6060779,10.1142202 20.5569166,10.1207467 20.5071178,10.1230409 Z M23.7610737,10.2381392 C23.3136138,10.2577067 22.9349477,9.91543235 22.9146649,9.47393944 C22.8316969,7.66011412 22.0387901,5.98653607 20.6820365,4.7612759 C19.3251631,3.53676529 17.5668255,2.90736865 15.7311097,2.98950503 C15.2836498,3.00911203 14.904824,2.66758723 14.8845412,2.22562092 C14.8645778,1.78365461 15.2114621,1.40934626 15.6576444,1.3893053 C17.9263267,1.28807478 20.0989052,2.06552993 21.7753528,3.57881974 C23.4521199,5.09210956 24.4317247,7.15987911 24.5340571,9.40150794 C24.5518246,9.79384525 24.2812405,10.1328847 23.9073656,10.2179404 C23.8599725,10.2287104 23.8113017,10.2356538 23.7610737,10.2381392 Z"></path>
            </g>
        </g>
    </g>
</svg>