<?xml version="1.0" encoding="UTF-8"?>
<svg width="22px" height="27px" viewBox="0 0 22 27" version="1.1" xmlns="http://www.w3.org/2000/svg" xmlns:xlink="http://www.w3.org/1999/xlink">
    <!-- Generator: Sketch 49.3 (51167) - http://www.bohemiancoding.com/sketch -->
    <title>坐标@2x</title>
    <desc>Created with Sketch.</desc>
    <defs></defs>
    <g id="门店管理" stroke="none" stroke-width="1" fill="none" fill-rule="evenodd">
        <g id="首页" transform="translate(-131.000000, -282.000000)" fill="#FFFFFF">
            <g id="坐标" transform="translate(131.000000, 282.000000)">
                <path d="M6.39779846,16.2745239 C6.45171501,16.1917448 6.51726639,16.1206066 6.59491938,16.0615819 C6.7862245,15.9101839 7.01735891,15.7826601 7.28832261,15.687027 C7.55128933,15.5913355 7.83023056,15.5116964 8.10917179,15.4399375 C8.38811302,15.3681981 8.64318003,15.2646069 8.85835938,15.121167 C9.03370943,15.0095983 9.16125267,14.9060071 9.24886932,14.8103156 C9.33650543,14.714702 9.40826431,14.6190883 9.4480936,14.5234747 C9.48798126,14.4277832 9.51185549,14.3321696 9.51185549,14.2205814 C9.51185549,14.1169902 9.50387796,13.997444 9.49597825,13.8619232 C9.48000373,13.6706959 9.40826431,13.5192785 9.29667614,13.4156094 C9.18510743,13.3040407 9.0575642,13.2004496 8.92212127,13.0968389 C8.85835938,13.0410546 8.79459749,12.9613376 8.74679067,12.857727 C8.69100631,12.7541358 8.65117702,12.6505446 8.6112699,12.5469534 C8.57144061,12.4353653 8.53161132,12.3078415 8.49970119,12.1644016 C8.44389738,12.1484465 8.38811302,12.1165948 8.32435114,12.0767071 C8.27654431,12.0368778 8.22873749,11.9810934 8.17295314,11.901357 C8.11714932,11.8216985 8.0693425,11.7181073 8.02153568,11.590564 C7.97372886,11.4550433 7.95777379,11.3275973 7.96575132,11.2160092 C7.97372886,11.0964629 7.99760308,11.0008493 8.0375102,10.9211129 C8.07732003,10.8254992 8.12514631,10.7377853 8.19688573,10.6660459 C8.1889082,10.3632304 8.20486327,10.052379 8.23671502,9.74158605 C8.27654431,9.47859988 8.33232867,9.19965865 8.41206508,8.90476235 C8.4917042,8.61784359 8.61924744,8.34687989 8.78661996,8.09979041 C8.93809579,7.868656 9.11336801,7.68540624 9.30467313,7.54190794 C9.49597825,7.39848748 9.68720555,7.28691877 9.8864882,7.20718236 C10.085693,7.12752378 10.2849173,7.07173942 10.4842,7.03980983 C10.6834048,7.00797753 10.8747099,7 11.0580375,7 C11.5441611,7 11.9745003,7.10359118 12.3570522,7.30287383 C12.7396624,7.50207865 13.0186037,7.717258 13.2018534,7.94839241 C13.4091136,8.20338159 13.5684891,8.49030035 13.6641028,8.80914871 C13.7677134,9.12791923 13.8394528,9.42281553 13.8872597,9.70175676 C13.9350665,10.0285048 13.9510215,10.3472753 13.943044,10.6740234 C13.9908508,10.7139305 14.0307579,10.7617373 14.0705872,10.8334768 C14.102439,10.8892611 14.1263716,10.9609422 14.1502458,11.0566336 C14.1741784,11.1442698 14.1741784,11.2558385 14.1582234,11.3913592 C14.1423461,11.5666315 14.102439,11.7021522 14.0466546,11.8057434 C13.9908508,11.9093346 13.9350665,11.989071 13.8713046,12.0448553 C13.8075232,12.1086172 13.7278841,12.156424 13.6401702,12.1723986 C13.6003409,12.315819 13.5605116,12.4433428 13.5286015,12.554931 C13.4887722,12.6585222 13.4409654,12.7621133 13.3851615,12.8657045 C13.3293772,12.9693151 13.2656153,13.0490321 13.2018534,13.0968389 C13.1221948,13.1606203 13.0584135,13.2243822 12.9946516,13.272189 C12.9308897,13.3199958 12.8751054,13.3678026 12.8272985,13.423587 C12.7794917,13.4793908 12.7396624,13.5351751 12.7077328,13.598937 C12.6758811,13.6626989 12.6519485,13.750335 12.6280742,13.838049 C12.6121192,13.9655922 12.6041417,14.0850606 12.6041417,14.2126039 C12.6121192,14.3401471 12.6359934,14.4676709 12.6997553,14.5871587 C12.7555397,14.714702 12.8512311,14.8262707 12.9786965,14.9458364 C13.1062398,15.0574051 13.2895479,15.1609963 13.5127048,15.2487102 C13.7119096,15.3363463 13.9350665,15.4081052 14.1741784,15.4718671 C14.4132904,15.5355511 14.6523245,15.60731 14.8754814,15.695024 C15.0986382,15.7826601 15.2979209,15.8862513 15.4732709,16.021772 C15.55961,16.0666704 15.6324873,16.1250487 15.693194,16.1936564 C17.1099626,14.9124409 18,13.05949 18,10.9984976 C18,7.13456541 14.8667891,4 11,4 C7.13321094,4 4,7.13456541 4,10.9984976 C4,13.1032686 4.92825045,14.991066 6.39779846,16.2745239 Z M22,11.1791102 C22,11.374943 21.9804989,11.5647115 21.971178,11.7562598 C21.9795734,11.8515396 22,11.9426668 22,12.0397592 C22,18.9201066 12.6922696,26.0672439 11.8460521,26.7135052 C11,27.3581185 10.1537826,26.7135052 10.1537826,26.7135052 C10.1537826,26.7135052 0,18.9201066 0,12.0397592 C0,11.9426668 0.0195011433,11.8515396 0.028788976,11.7562598 C0.0185756653,11.5647115 0,11.374943 0,11.1791102 C0,5.00579752 4.92460059,0 11,0 C17.0753664,0 22,5.00579752 22,11.1791102 Z"></path>
            </g>
        </g>
    </g>
</svg>