<?xml version="1.0" encoding="UTF-8"?>
<svg width="30px" height="25px" viewBox="0 0 30 25" version="1.1" xmlns="http://www.w3.org/2000/svg" xmlns:xlink="http://www.w3.org/1999/xlink">
    <!-- Generator: Sketch 49.3 (51167) - http://www.bohemiancoding.com/sketch -->
    <title>拍摄-选中@2x</title>
    <desc>Created with Sketch.</desc>
    <defs></defs>
    <g id="新增页面" stroke="none" stroke-width="1" fill="none" fill-rule="evenodd">
        <g id="上传销量数据" transform="translate(-322.000000, -559.000000)" fill="#B6B6B6">
            <g id="列表" transform="translate(20.000000, 559.000000)">
                <g id="拍摄-选中" transform="translate(302.000000, 0.000000)">
                    <path d="M14.9029667,8.75881468 C12.3239352,8.75881468 10.2320981,10.8498631 10.2320981,13.4294879 C10.2320981,16.0089796 12.3239352,18.1002054 14.9029667,18.1002054 C17.4827036,18.1002054 19.5745406,16.0089796 19.5745406,13.4294879 C19.5745406,10.8498631 17.4827036,8.75881468 14.9029667,8.75881468 Z M30,4.99896246 C30,4.07976135 29.2533153,3.33379446 28.3333725,3.33379446 L22.5000441,3.33379446 L21.6663777,1.66689723 C21.6663777,1.66689723 20.9205306,0 20.0005878,0 L9.99941219,0 C9.07964578,0 8.33379869,1.66689723 8.33379869,1.66689723 L7.50013226,3.33379446 L1.66649522,3.33379446 C0.746728818,3.33379446 0,4.07976135 0,4.99896246 L0,23.3331471 C0,24.2540331 0.746728818,25 1.66649522,25 L28.3333725,25 C29.2533153,25 30,24.2540331 30,23.3331471 L30,20.9994289 L29.9858925,21.3548539 L30,15.3203436 L30,4.99896246 Z M14.9029667,19.6574512 C11.464258,19.6574512 8.67599429,16.8675244 8.67599429,13.4294879 C8.67599429,9.98954476 11.464258,7.20139155 14.9029667,7.20139155 C18.3423808,7.20139155 21.1304681,9.98954476 21.1304681,13.4294879 C21.1304681,16.8675244 18.3423808,19.6574512 14.9029667,19.6574512 Z M24.7634198,8.49450723 C24.0527092,8.49450723 23.4776954,7.91530101 23.4776954,7.20139155 C23.4776954,6.48743775 24.0527092,5.90823153 24.7634198,5.90823153 C25.4732927,5.90823153 26.0491441,6.48743775 26.0491441,7.20139155 C26.0491441,7.91530101 25.4732927,8.49450723 24.7634198,8.49450723 Z" id="Fill-1"></path>
                </g>
            </g>
        </g>
    </g>
</svg>