<?xml version="1.0" encoding="UTF-8"?>
<svg width="34px" height="30px" viewBox="0 0 34 30" version="1.1" xmlns="http://www.w3.org/2000/svg" xmlns:xlink="http://www.w3.org/1999/xlink">
    <!-- Generator: Sketch 49.3 (51167) - http://www.bohemiancoding.com/sketch -->
    <title>门店统计@2x</title>
    <desc>Created with Sketch.</desc>
    <defs></defs>
    <g id="新增页面" stroke="none" stroke-width="1" fill="none" fill-rule="evenodd">
        <g id="统计分类" transform="translate(-171.000000, -115.000000)" fill="#00BFDB">
            <path d="M202.866109,115.038217 L173.124455,115.038217 C171.952095,115.038217 171,115.997357 171,117.178392 L171,142.859777 C171,144.040812 171.952095,144.999952 173.124455,144.999952 L202.866109,144.999952 C204.038279,144.999952 204.990563,144.040812 204.990563,142.859777 L204.990563,117.178392 C204.990563,115.997357 204.038279,115.038217 202.866109,115.038217 Z M173.124455,142.859777 L202.866109,142.859777 L202.866109,121.638217 L173.124455,121.638217 L173.124455,142.859777 Z M173.124455,119.318567 L173.124455,117.178392 L202.866109,117.178392 L202.866109,119.318567 L173.124455,119.318567 Z M177,137.923232 C177,137.67335 177.097576,137.458025 177.236347,137.277402 L177.22135,137.265771 L183.970115,128.34902 C184.659942,127.457057 185.859769,127.260862 186.7821,127.887754 L191.405051,131.04827 L196.155385,125.373021 L196.162883,125.380711 C196.357847,125.153755 196.631547,125 196.950098,125 C197.531336,125 198,125.480636 198,126.07672 C198,126.34578 197.894925,126.584175 197.737501,126.772488 L197.745,126.780226 L193.077198,132.344111 C192.844694,132.716988 192.372186,133.040119 191.821178,133.155376 C191.262436,133.274621 190.707538,133.155376 190.242717,132.836234 L185.619766,129.675671 L178.882202,138.584683 L178.867158,138.573244 C178.672194,138.826875 178.38734,139 178.049948,139 C177.468664,139 177,138.519364 177,137.923232 Z" id="门店统计"></path>
        </g>
    </g>
</svg>