<?xml version="1.0" encoding="UTF-8"?>
<svg width="32px" height="29px" viewBox="0 0 32 29" version="1.1" xmlns="http://www.w3.org/2000/svg" xmlns:xlink="http://www.w3.org/1999/xlink">
    <!-- Generator: Sketch 49.3 (51167) - http://www.bohemiancoding.com/sketch -->
    <title>销售报表统计@2x</title>
    <desc>Created with Sketch.</desc>
    <defs></defs>
    <g id="新增页面" stroke="none" stroke-width="1" fill="none" fill-rule="evenodd">
        <g id="统计分类" transform="translate(-299.000000, -116.000000)" fill="#00BFDB">
            <path d="M300.230862,134.867986 C299.551008,134.867986 299,135.434943 299,136.134339 L299,143.733449 C299,144.432993 299.551008,145 300.230862,145 C300.910475,145 301.461483,144.432993 301.461483,143.733449 L301.461483,136.134339 C301.461483,135.434943 300.910475,134.867986 300.230862,134.867986 Z M310.076794,126 C309.39718,126 308.846172,126.566957 308.846172,127.266353 L308.846172,143.730926 C308.846172,144.430322 309.39718,144.997526 310.076794,144.997526 C310.756647,144.997526 311.307655,144.430322 311.307655,143.730926 L311.307655,127.266353 C311.307655,126.566957 310.756647,126 310.076794,126 Z M319.922966,134.867986 C319.243305,134.867986 318.692345,135.434943 318.692345,136.134339 L318.692345,143.733449 C318.692345,144.432993 319.243305,145 319.922966,145 C320.60282,145 321.153828,144.432993 321.153828,143.733449 L321.153828,136.134339 C321.153828,135.434943 320.60282,134.867986 319.922966,134.867986 Z M329.769138,126 C330.4488,126 331,126.566957 331,127.266353 L331,143.730926 C331,144.430322 330.4488,144.997526 329.769138,144.997526 C329.089477,144.997526 328.538277,144.430322 328.538277,143.730926 L328.538277,127.266353 C328.538277,126.566957 329.089477,126 329.769138,126 Z M330.199452,116.105905 C330.679531,116.291485 330.99923,116.773818 331,117.313976 L331,122.521946 C331,123.240869 330.448514,123.823748 329.768263,123.823748 C329.087867,123.823748 328.536381,123.240869 328.536381,122.521946 L328.536381,120.498577 L320.859603,128.61255 C320.603949,128.879705 320.252828,129.019766 319.893816,128.997745 C319.544043,129.016003 319.191767,128.891046 318.928078,128.61255 L310.02933,119.207049 L301.128177,128.617686 C300.623125,129.096053 299.852459,129.073624 299.37315,128.566422 C298.894035,128.05927 298.873729,127.244531 299.327101,126.711544 L309.093088,116.387046 C309.345518,116.124214 309.690287,115.984559 310.044199,116.001647 C310.403211,115.982982 310.753177,116.123604 311.009937,116.38964 L319.89627,125.781969 L326.676264,118.618626 L324.843478,118.618626 C324.163034,118.618626 323.611548,118.035747 323.611548,117.31657 C323.611548,116.597596 324.163034,116.014768 324.843478,116.014768 L329.588396,116.014768 C329.796075,115.99112 330.006064,116.022499 330.199452,116.105905 Z" id="销售报表统计"></path>
        </g>
    </g>
</svg>