<?xml version="1.0" encoding="UTF-8"?>
<svg width="19px" height="21px" viewBox="0 0 19 21" version="1.1" xmlns="http://www.w3.org/2000/svg" xmlns:xlink="http://www.w3.org/1999/xlink">
    <!-- Generator: Sketch 49.3 (51167) - http://www.bohemiancoding.com/sketch -->
    <title>消息@2x</title>
    <desc>Created with Sketch.</desc>
    <defs></defs>
    <g id="门店管理" stroke="none" stroke-width="1" fill="none" fill-rule="evenodd">
        <g id="首页" transform="translate(-20.000000, -78.000000)" stroke="#B6B6B6">
            <g id="提示" transform="translate(8.000000, 79.000000)">
                <g id="消息" transform="translate(13.000000, 0.000000)">
                    <path d="M15.3076528,10.7762202 L15.3076528,8.63846549 C15.3076528,5.62130785 13.1346549,3.08647923 10.1960393,2.37221608 L10.1960393,2.33596588 C10.1960393,1.32163165 9.43444953,0.499289212 8.49496525,0.499289212 C7.55548097,0.499289212 6.79422682,1.32163165 6.79422682,2.33596588 L6.79422682,2.37792213 C3.86735903,3.10024088 1.70610883,5.6290278 1.70610883,8.63812984 L1.70610883,10.397607 L1.70476623,10.397607 C1.73967383,12.5692624 0,12.9948665 0,14.1676275 C0,15.3397173 0.950225083,15.7968725 2.1223148,15.7968725 L5.09113884,15.7968725 L11.9162455,15.7968725 L14.8773495,15.7968725 C16.0494393,15.7968725 17,15.3397173 17,14.1676275 C17,13.0666956 15.4603736,12.6192742 15.3076528,10.7762202 Z" id="Page-1"></path>
                    <path d="M4.26397218,16.022203 C4.88795208,17.7583838 6.54897854,19 8.5,19 C10.4548621,19 12.1185864,17.7534907 12.7397008,16.011944" id="Oval"></path>
                </g>
            </g>
        </g>
    </g>
</svg>