<?xml version="1.0" encoding="UTF-8"?>
<svg width="14px" height="12px" viewBox="0 0 14 12" version="1.1" xmlns="http://www.w3.org/2000/svg" xmlns:xlink="http://www.w3.org/1999/xlink">
    <!-- Generator: Sketch 49.3 (51167) - http://www.bohemiancoding.com/sketch -->
    <title>类型@2x</title>
    <desc>Created with Sketch.</desc>
    <defs></defs>
    <g id="巡店执行" stroke="none" stroke-width="1" fill="none" fill-rule="evenodd">
        <g id="自建任务" transform="translate(-315.000000, -85.000000)" fill="#484848" fill-rule="nonzero">
            <g id="分类" transform="translate(0.000000, 64.000000)">
                <path d="M316,22.75 C315.585786,22.75 315.25,22.4142136 315.25,22 C315.25,21.5857864 315.585786,21.25 316,21.25 L327.833411,21.25 C328.247624,21.25 328.583411,21.5857864 328.583411,22 C328.583411,22.4142136 328.247624,22.75 327.833411,22.75 L316,22.75 Z M316,27.75 C315.585786,27.75 315.25,27.4142136 315.25,27 C315.25,26.5857864 315.585786,26.25 316,26.25 L327.833411,26.25 C328.247624,26.25 328.583411,26.5857864 328.583411,27 C328.583411,27.4142136 328.247624,27.75 327.833411,27.75 L316,27.75 Z M316,32.75 C315.585786,32.75 315.25,32.4142136 315.25,32 C315.25,31.5857864 315.585786,31.25 316,31.25 L327.833411,31.25 C328.247624,31.25 328.583411,31.5857864 328.583411,32 C328.583411,32.4142136 328.247624,32.75 327.833411,32.75 L316,32.75 Z" id="类型"></path>
            </g>
        </g>
    </g>
</svg>