<?xml version="1.0" encoding="utf-8"?>
<!-- Generator: Adobe Illustrator 22.0.1, SVG Export Plug-In . SVG Version: 6.00 Build 0)  -->
<svg version="1.1" id="图层_1" xmlns="http://www.w3.org/2000/svg" xmlns:xlink="http://www.w3.org/1999/xlink" x="0px" y="0px"
	 viewBox="0 0 15 15" style="enable-background:new 0 0 15 15;" xml:space="preserve">
<style type="text/css">
	.st0{fill:#D1E3E9;}
	.st1{enable-background:new    ;}
	.st2{fill:#FFFFFF;}
</style>
<title>？@2x</title>
<desc>Created with Sketch.</desc>
<g id="任务编辑" transform="translate(-335.000000, -1113.000000)">
	<g id="_x23_1" transform="translate(10.000000, 197.000000)">
		<g id="_x30_2" transform="translate(14.000000, 899.000000)">
			<g id="_xFF1F_" transform="translate(311.000000, 17.000000)">
				<g id="Oval">
					<circle class="st0" cx="7.5" cy="7.5" r="7.5"/>
				</g>
				<g class="st1">
					<path class="st2" d="M9.5,4.6c0.4,0.4,0.6,0.9,0.6,1.6c0,0.5-0.1,0.9-0.4,1.3C9.6,7.5,9.3,7.8,8.9,8.3C8.6,8.5,8.4,8.7,8.3,8.9
						C8.2,9.1,8.1,9.4,8.1,9.7v0.3H7.2V9.7c0-0.4,0.1-0.7,0.2-1C7.6,8.4,8,8,8.6,7.4C8.7,7.3,8.9,7.1,8.9,7c0.2-0.3,0.3-0.6,0.3-0.9
						c0-0.4-0.1-0.8-0.4-1C8.6,4.9,8.3,4.8,7.8,4.8c-0.5,0-1,0.2-1.2,0.5C6.3,5.6,6.2,6,6.2,6.6H5.4c0-0.8,0.2-1.4,0.6-1.8
						C6.4,4.2,7.1,4,7.8,4C8.6,4,9.1,4.2,9.5,4.6z M8.2,10.9c0.1,0.1,0.2,0.3,0.2,0.5c0,0.2-0.1,0.4-0.2,0.5C8,11.9,7.9,12,7.7,12
						s-0.3-0.1-0.5-0.2C7.1,11.7,7,11.5,7,11.3c0-0.2,0.1-0.3,0.2-0.5c0.1-0.1,0.3-0.2,0.5-0.2S8,10.7,8.2,10.9z"/>
				</g>
			</g>
		</g>
	</g>
</g>
</svg>
