<?xml version="1.0" encoding="UTF-8"?>
<svg width="77px" height="77px" viewBox="0 0 77 77" version="1.1" xmlns="http://www.w3.org/2000/svg" xmlns:xlink="http://www.w3.org/1999/xlink">
    <!-- Generator: Sketch 49.3 (51167) - http://www.bohemiancoding.com/sketch -->
    <title>标签@2x</title>
    <desc>Created with Sketch.</desc>
    <defs>
        <polygon id="path-1" points="0 76.4004 76.4 76.4004 76.4 0.0004 0 0.0004"></polygon>
    </defs>
    <g id="门店管理" stroke="none" stroke-width="1" fill="none" fill-rule="evenodd">
        <g id="新增网点_详情_未审核" transform="translate(-279.000000, -80.000000)">
            <g id="标签" transform="translate(317.750000, 118.433013) rotate(-30.000000) translate(-317.750000, -118.433013) translate(279.250000, 79.933013)">
                <path d="M38.2002,63.3003 C24.3602,63.3003 13.1002,52.0403 13.1002,38.2003 C13.1002,24.3603 24.3602,13.1003 38.2002,13.1003 C52.0402,13.1003 63.3002,24.3603 63.3002,38.2003 C63.3002,52.0403 52.0402,63.3003 38.2002,63.3003 M38.2002,12.3003 C23.9192,12.3003 12.3002,23.9193 12.3002,38.2003 C12.3002,52.4813 23.9192,64.1003 38.2002,64.1003 C52.4812,64.1003 64.1002,52.4813 64.1002,38.2003 C64.1002,23.9193 52.4812,12.3003 38.2002,12.3003" id="Fill-1" fill="#00BFDB"></path>
                <path d="M23.0557,10.4683 C23.2007,10.3893 23.3327,10.3443 23.4517,10.3333 C23.5717,10.3223 23.6787,10.3353 23.7767,10.3743 C23.8727,10.4133 23.9587,10.4723 24.0347,10.5523 C24.1097,10.6323 24.1767,10.7263 24.2347,10.8323 C24.3737,11.0883 24.4077,11.3053 24.3327,11.4843 C24.2607,11.6613 24.1037,11.8173 23.8627,11.9483 L23.5867,12.0983 L22.7817,10.6173 L23.0557,10.4683 Z M21.8897,11.0153 C22.0377,10.9573 22.1477,10.9293 22.2177,10.9313 C22.2877,10.9343 22.3407,10.9693 22.3787,11.0373 L23.8147,13.6733 C23.8527,13.7413 23.8547,13.8023 23.8227,13.8533 C23.7897,13.9043 23.7117,13.9823 23.5887,14.0833 C23.5577,14.1103 23.5557,14.1473 23.5817,14.1953 C23.5947,14.2163 23.6127,14.2413 23.6377,14.2733 C23.7337,14.2103 23.8387,14.1473 23.9487,14.0793 C24.0607,14.0123 24.1607,13.9543 24.2497,13.9053 C24.3987,13.8233 24.5377,13.7523 24.6687,13.6873 C24.7977,13.6223 24.9157,13.5673 25.0207,13.5193 C25.0087,13.4823 24.9957,13.4493 24.9827,13.4253 C24.9537,13.3733 24.9177,13.3563 24.8717,13.3713 C24.7087,13.4333 24.5807,13.4683 24.4877,13.4773 C24.3937,13.4863 24.3257,13.4503 24.2817,13.3713 L23.7027,12.3103 L24.1547,12.0653 C24.3287,11.9683 24.4717,11.8533 24.5787,11.7183 C24.6867,11.5833 24.7627,11.4453 24.8087,11.3023 C24.8537,11.1583 24.8697,11.0163 24.8587,10.8753 C24.8467,10.7343 24.8107,10.6093 24.7497,10.4973 C24.5977,10.2183 24.3797,10.0413 24.0987,9.9663 C23.8157,9.8923 23.4897,9.9573 23.1167,10.1593 L22.3857,10.5583 C22.2887,10.6113 22.1847,10.6633 22.0737,10.7173 C21.9617,10.7713 21.8567,10.8223 21.7567,10.8673 C21.7637,10.8983 21.7747,10.9273 21.7877,10.9503 C21.8187,11.0053 21.8517,11.0283 21.8897,11.0153 Z" id="Fill-3" fill="#00BFDB"></path>
                <path d="M27.2217,10.6538 L26.1887,11.0818 L26.1627,9.5288 L27.2217,10.6538 Z M25.6517,13.1148 C25.7307,13.0698 25.8077,13.0308 25.8817,12.9938 C25.9557,12.9588 26.0307,12.9268 26.1027,12.8968 C26.2077,12.8528 26.3167,12.8118 26.4277,12.7718 C26.5387,12.7318 26.6447,12.6948 26.7457,12.6628 C26.7387,12.6238 26.7307,12.5928 26.7217,12.5708 C26.7117,12.5498 26.7007,12.5328 26.6837,12.5188 C26.6667,12.5068 26.6467,12.5038 26.6187,12.5098 C26.3847,12.5698 26.2507,12.5598 26.2197,12.4848 C26.2077,12.4558 26.2017,12.4158 26.2017,12.3648 L26.1877,11.3428 L27.4017,10.8408 L28.1177,11.5978 C28.1447,11.6248 28.1637,11.6478 28.1727,11.6708 C28.1927,11.7168 28.1777,11.7648 28.1297,11.8118 C28.0807,11.8608 28.0137,11.9128 27.9267,11.9698 C27.9147,11.9738 27.9077,11.9858 27.8997,12.0038 C27.8917,12.0208 27.8957,12.0468 27.9077,12.0798 C27.9167,12.1008 27.9327,12.1288 27.9557,12.1618 C28.0577,12.1108 28.1727,12.0558 28.3017,11.9968 C28.4297,11.9368 28.5447,11.8858 28.6477,11.8438 C28.7447,11.8038 28.8507,11.7628 28.9657,11.7218 C29.0807,11.6788 29.1987,11.6398 29.3177,11.5978 C29.3097,11.5588 29.2997,11.5288 29.2917,11.5078 C29.2787,11.4738 29.2627,11.4548 29.2437,11.4468 C29.2267,11.4398 29.2047,11.4358 29.1807,11.4388 C29.1027,11.4578 29.0207,11.4678 28.9327,11.4698 C28.8437,11.4728 28.7787,11.4538 28.7357,11.4118 L26.0697,8.7008 C26.0377,8.7048 26.0147,8.7108 25.9997,8.7168 C25.9557,8.7338 25.9347,8.7788 25.9347,8.8508 L25.9287,12.5538 C25.9277,12.6228 25.9057,12.6818 25.8607,12.7318 C25.8157,12.7838 25.7397,12.8418 25.6337,12.9058 C25.6077,12.9218 25.5927,12.9408 25.5907,12.9618 C25.5887,12.9838 25.5937,13.0078 25.6047,13.0328 C25.6167,13.0618 25.6317,13.0898 25.6517,13.1148 Z" id="Fill-5" fill="#00BFDB"></path>
                <path d="M27.7451,8.1148 C27.7481,8.1248 27.7511,8.1328 27.7531,8.1398 C27.7611,8.1678 27.7701,8.1888 27.7861,8.2048 C27.8021,8.2198 27.8181,8.2278 27.8391,8.2258 C27.9401,8.2138 28.0251,8.2128 28.0891,8.2238 C28.1541,8.2368 28.2141,8.2658 28.2681,8.3118 L29.7021,9.7398 L30.0521,10.9588 C30.0751,11.0408 30.0591,11.1058 30.0031,11.1538 C29.9471,11.1998 29.8501,11.2598 29.7111,11.3318 C29.6761,11.3498 29.6661,11.3858 29.6811,11.4388 C29.6821,11.4468 29.6851,11.4558 29.6881,11.4668 C29.6921,11.4778 29.6961,11.4878 29.7021,11.4938 C29.7071,11.5098 29.7131,11.5198 29.7181,11.5268 C29.8041,11.4978 29.8901,11.4688 29.9751,11.4408 C30.0501,11.4148 30.1281,11.3878 30.2101,11.3598 C30.2921,11.3338 30.3651,11.3098 30.4291,11.2918 C30.4931,11.2728 30.5691,11.2538 30.6551,11.2328 C30.7411,11.2128 30.8221,11.1928 30.8991,11.1758 C30.9871,11.1538 31.0771,11.1328 31.1691,11.1098 C31.1671,11.1018 31.1651,11.0908 31.1651,11.0738 C31.1611,11.0658 31.1601,11.0558 31.1591,11.0448 C31.1571,11.0328 31.1561,11.0228 31.1531,11.0148 C31.1391,10.9628 31.1091,10.9388 31.0651,10.9428 C30.9111,10.9628 30.7981,10.9648 30.7271,10.9508 C30.6551,10.9368 30.6081,10.8878 30.5841,10.8038 L30.2201,9.5358 L30.6711,7.6458 C30.6881,7.5678 30.7221,7.5068 30.7681,7.4628 C30.8151,7.4188 30.9011,7.3678 31.0281,7.3098 C31.0661,7.2878 31.0781,7.2498 31.0631,7.1968 C31.0611,7.1888 31.0581,7.1808 31.0541,7.1748 C31.0501,7.1678 31.0461,7.1578 31.0421,7.1478 C31.0361,7.1358 31.0301,7.1248 31.0261,7.1088 C30.9331,7.1438 30.8401,7.1778 30.7451,7.2108 C30.6511,7.2438 30.5591,7.2728 30.4731,7.2988 C30.3791,7.3258 30.2741,7.3518 30.1611,7.3788 C30.0491,7.4048 29.9501,7.4268 29.8641,7.4418 C29.8641,7.4588 29.8671,7.4718 29.8701,7.4838 C29.8701,7.4998 29.8741,7.5168 29.8791,7.5368 C29.8951,7.5968 29.9271,7.6228 29.9691,7.6148 C30.0851,7.6028 30.1711,7.6018 30.2291,7.6128 C30.2881,7.6258 30.3251,7.6558 30.3381,7.7048 C30.3491,7.7438 30.3451,7.8018 30.3271,7.8808 L30.0021,9.2488 L28.9351,8.1808 C28.8971,8.1478 28.8741,8.1158 28.8651,8.0858 C28.8541,8.0468 28.8671,8.0108 28.9051,7.9778 C28.9421,7.9448 29.0151,7.9058 29.1181,7.8588 C29.1381,7.8498 29.1471,7.8338 29.1511,7.8118 C29.1551,7.7908 29.1551,7.7688 29.1471,7.7458 C29.1451,7.7398 29.1421,7.7318 29.1391,7.7238 C29.1341,7.7178 29.1301,7.7088 29.1281,7.6968 C29.1211,7.6868 29.1151,7.6738 29.1101,7.6588 C29.0701,7.6758 29.0201,7.6928 28.9641,7.7128 C28.9071,7.7338 28.8471,7.7558 28.7821,7.7748 C28.7181,7.7948 28.6571,7.8148 28.5971,7.8338 C28.5361,7.8528 28.4841,7.8688 28.4381,7.8828 C28.3181,7.9178 28.1921,7.9508 28.0611,7.9818 C27.9321,8.0118 27.8241,8.0358 27.7391,8.0528 C27.7391,8.0648 27.7401,8.0768 27.7431,8.0888 C27.7421,8.0968 27.7431,8.1048 27.7451,8.1148" id="Fill-7" fill="#00BFDB"></path>
                <path d="M31.9229,7.1362 C31.9789,7.1572 32.0189,7.1942 32.0439,7.2452 L33.7119,10.5012 C33.7429,10.5702 33.7819,10.6012 33.8289,10.5952 C33.8529,10.5922 33.8719,10.5852 33.8879,10.5752 L34.5399,7.6072 L35.8479,10.2452 C35.8799,10.3132 35.9189,10.3442 35.9659,10.3382 C35.9849,10.3352 36.0069,10.3292 36.0279,10.3192 L36.8479,6.7002 C36.8659,6.6222 36.9029,6.5662 36.9609,6.5302 C37.0189,6.4932 37.1049,6.4602 37.2189,6.4302 C37.2649,6.4162 37.2839,6.3782 37.2769,6.3162 C37.2759,6.3042 37.2719,6.2892 37.2649,6.2702 C37.2589,6.2512 37.2549,6.2362 37.2539,6.2242 C37.1929,6.2402 37.1089,6.2562 37.0009,6.2762 C36.8959,6.2932 36.7939,6.3082 36.7019,6.3202 C36.6149,6.3292 36.5169,6.3392 36.4049,6.3472 C36.2929,6.3552 36.1859,6.3612 36.0829,6.3652 C36.0789,6.3962 36.0789,6.4272 36.0829,6.4602 C36.0899,6.5222 36.1149,6.5522 36.1589,6.5512 C36.2859,6.5522 36.3789,6.5632 36.4389,6.5832 C36.4989,6.6032 36.5319,6.6412 36.5379,6.6972 C36.5399,6.7122 36.5399,6.7302 36.5379,6.7492 C36.5369,6.7692 36.5339,6.7922 36.5279,6.8162 L35.9829,9.2912 L34.6529,6.5722 C34.6319,6.5232 34.6019,6.4992 34.5629,6.5052 C34.5469,6.5072 34.5279,6.5142 34.5049,6.5242 L33.8469,9.5482 L32.6729,7.2362 C32.6579,7.2142 32.6499,7.1912 32.6479,7.1682 C32.6399,7.1092 32.6669,7.0622 32.7249,7.0252 C32.7839,6.9892 32.8689,6.9582 32.9819,6.9332 C33.0239,6.9192 33.0399,6.8842 33.0329,6.8242 C33.0299,6.8012 33.0229,6.7712 33.0109,6.7332 C32.8919,6.7552 32.7619,6.7782 32.6239,6.8002 C32.4849,6.8222 32.3679,6.8392 32.2709,6.8512 C32.2239,6.8572 32.1699,6.8632 32.1089,6.8662 C32.0489,6.8722 31.9849,6.8782 31.9209,6.8842 C31.8569,6.8902 31.7919,6.8942 31.7269,6.8992 C31.6629,6.9022 31.6029,6.9062 31.5479,6.9072 C31.5439,6.9492 31.5439,6.9782 31.5459,6.9972 C31.5539,7.0602 31.5789,7.0952 31.6239,7.1012 C31.7669,7.1032 31.8659,7.1152 31.9229,7.1362" id="Fill-9" fill="#00BFDB"></path>
                <path d="M38.9092,7.1187 L39.4192,8.5777 L38.2982,8.5467 L38.9092,7.1187 Z M36.9882,10.0217 C36.9772,10.0417 36.9722,10.0647 36.9722,10.0927 C36.9712,10.1237 36.9732,10.1557 36.9812,10.1867 C37.0712,10.1777 37.1592,10.1717 37.2402,10.1697 C37.3232,10.1677 37.4032,10.1687 37.4832,10.1707 C37.5972,10.1737 37.7122,10.1797 37.8292,10.1887 C37.9482,10.1967 38.0592,10.2077 38.1652,10.2187 C38.1752,10.1797 38.1792,10.1477 38.1792,10.1247 C38.1802,10.1007 38.1752,10.0797 38.1672,10.0617 C38.1572,10.0447 38.1382,10.0327 38.1112,10.0287 C37.8722,9.9857 37.7552,9.9247 37.7572,9.8417 C37.7582,9.8097 37.7682,9.7707 37.7902,9.7237 L38.1912,8.7857 L39.5072,8.8217 L39.8502,9.8047 C39.8652,9.8397 39.8732,9.8687 39.8722,9.8917 C39.8712,9.9447 39.8382,9.9807 39.7742,10.0057 C39.7112,10.0287 39.6282,10.0497 39.5252,10.0657 C39.5132,10.0657 39.5012,10.0717 39.4872,10.0857 C39.4722,10.0987 39.4652,10.1237 39.4642,10.1597 C39.4632,10.1817 39.4662,10.2147 39.4732,10.2537 C39.5872,10.2487 39.7162,10.2457 39.8562,10.2437 C39.9992,10.2407 40.1242,10.2417 40.2342,10.2437 C40.3412,10.2477 40.4542,10.2537 40.5762,10.2627 C40.6982,10.2717 40.8212,10.2817 40.9462,10.2927 C40.9562,10.2537 40.9602,10.2227 40.9612,10.1987 C40.9622,10.1637 40.9552,10.1387 40.9422,10.1247 C40.9292,10.1107 40.9112,10.0987 40.8872,10.0907 C40.8082,10.0767 40.7292,10.0527 40.6472,10.0187 C40.5652,9.9857 40.5142,9.9407 40.4912,9.8867 L39.1592,6.3237 C39.1282,6.3137 39.1042,6.3097 39.0892,6.3097 C39.0422,6.3077 39.0042,6.3417 38.9752,6.4067 L37.4632,9.7867 C37.4342,9.8487 37.3882,9.8937 37.3272,9.9217 C37.2642,9.9487 37.1732,9.9717 37.0512,9.9877 C37.0182,9.9917 36.9982,10.0017 36.9882,10.0217 Z" id="Fill-11" fill="#00BFDB"></path>
                <path d="M40.9678,6.6108 C41.0678,6.6398 41.1438,6.6728 41.1978,6.7108 C41.2528,6.7478 41.2948,6.7978 41.3248,6.8628 L42.0558,8.7508 L41.8798,10.0058 C41.8678,10.0908 41.8268,10.1438 41.7568,10.1638 C41.6868,10.1828 41.5728,10.1988 41.4168,10.2088 C41.3778,10.2108 41.3528,10.2398 41.3468,10.2948 C41.3448,10.3008 41.3438,10.3108 41.3418,10.3238 C41.3398,10.3348 41.3408,10.3448 41.3428,10.3528 C41.3408,10.3688 41.3408,10.3808 41.3448,10.3878 C41.4348,10.3978 41.5248,10.4058 41.6138,10.4148 C41.6928,10.4218 41.7748,10.4288 41.8618,10.4368 C41.9468,10.4458 42.0238,10.4548 42.0898,10.4648 C42.1548,10.4718 42.2318,10.4858 42.3198,10.5018 C42.4058,10.5168 42.4888,10.5328 42.5658,10.5488 C42.6548,10.5638 42.7448,10.5818 42.8388,10.5968 C42.8398,10.5898 42.8438,10.5788 42.8488,10.5638 C42.8508,10.5558 42.8528,10.5468 42.8568,10.5348 C42.8608,10.5238 42.8628,10.5128 42.8638,10.5058 C42.8708,10.4518 42.8548,10.4178 42.8118,10.4038 C42.6638,10.3588 42.5598,10.3158 42.4998,10.2738 C42.4408,10.2318 42.4168,10.1678 42.4288,10.0828 L42.6128,8.7748 L43.7918,7.2308 C43.8408,7.1668 43.8958,7.1238 43.9558,7.1028 C44.0168,7.0818 44.1158,7.0698 44.2548,7.0698 C44.2998,7.0638 44.3248,7.0348 44.3328,6.9798 C44.3348,6.9718 44.3348,6.9648 44.3328,6.9568 C44.3318,6.9478 44.3328,6.9378 44.3338,6.9258 C44.3318,6.9138 44.3318,6.8998 44.3348,6.8838 C44.2358,6.8798 44.1368,6.8728 44.0358,6.8628 C43.9368,6.8558 43.8408,6.8448 43.7528,6.8338 C43.6558,6.8198 43.5498,6.8018 43.4358,6.7798 C43.3218,6.7578 43.2218,6.7368 43.1378,6.7158 C43.1318,6.7318 43.1278,6.7458 43.1258,6.7568 C43.1198,6.7718 43.1158,6.7898 43.1128,6.8088 C43.1048,6.8718 43.1198,6.9068 43.1628,6.9178 C43.2748,6.9528 43.3528,6.9878 43.4018,7.0228 C43.4498,7.0558 43.4718,7.0988 43.4638,7.1498 C43.4578,7.1888 43.4318,7.2408 43.3818,7.3048 L42.5298,8.4228 L41.9888,7.0148 C41.9678,6.9678 41.9588,6.9288 41.9638,6.8978 C41.9688,6.8588 41.9948,6.8328 42.0438,6.8178 C42.0908,6.8018 42.1728,6.7948 42.2868,6.7948 C42.3078,6.7938 42.3228,6.7848 42.3368,6.7658 C42.3488,6.7478 42.3568,6.7268 42.3608,6.7038 C42.3618,6.6958 42.3608,6.6868 42.3608,6.6788 C42.3598,6.6718 42.3608,6.6618 42.3628,6.6498 C42.3598,6.6378 42.3588,6.6248 42.3608,6.6088 C42.3178,6.6068 42.2658,6.6028 42.2038,6.5988 C42.1438,6.5928 42.0798,6.5878 42.0148,6.5818 C41.9468,6.5738 41.8838,6.5658 41.8218,6.5598 C41.7588,6.5528 41.7028,6.5468 41.6558,6.5398 C41.5318,6.5218 41.4048,6.5018 41.2728,6.4768 C41.1418,6.4528 41.0318,6.4308 40.9478,6.4118 C40.9428,6.4218 40.9388,6.4328 40.9388,6.4448 C40.9328,6.4528 40.9288,6.4608 40.9288,6.4698 C40.9268,6.4798 40.9258,6.4898 40.9248,6.4968 C40.9208,6.5238 40.9228,6.5488 40.9288,6.5688 C40.9368,6.5898 40.9488,6.6028 40.9678,6.6108" id="Fill-13" fill="#00BFDB"></path>
                <path d="M43.9795,10.0874 C43.8725,10.0664 43.7745,10.0854 43.6885,10.1464 C43.6025,10.2064 43.5475,10.2864 43.5285,10.3864 C43.5045,10.4974 43.5225,10.5974 43.5795,10.6834 C43.6355,10.7694 43.7175,10.8214 43.8255,10.8454 C43.9265,10.8644 44.0185,10.8474 44.1015,10.7904 C44.1855,10.7324 44.2395,10.6494 44.2615,10.5364 C44.2825,10.4374 44.2645,10.3414 44.2115,10.2524 C44.1575,10.1634 44.0815,10.1084 43.9795,10.0874" id="Fill-15" fill="#00BFDB"></path>
                <path d="M45.5771,11.0913 C45.7861,11.2593 46.0491,11.3903 46.3661,11.4833 C46.5951,11.5503 46.8091,11.6053 47.0051,11.6443 C47.2031,11.6843 47.3991,11.7163 47.5931,11.7393 C47.6691,11.5913 47.7531,11.4433 47.8451,11.2983 C47.9361,11.1533 48.0251,11.0213 48.1081,10.9043 C48.0991,10.8923 48.0861,10.8803 48.0661,10.8683 C48.0481,10.8573 48.0281,10.8483 48.0101,10.8433 C47.9461,10.8243 47.8911,10.8393 47.8491,10.8883 C47.7701,10.9873 47.6921,11.0733 47.6161,11.1483 C47.5391,11.2223 47.4551,11.2783 47.3641,11.3173 C47.2721,11.3553 47.1671,11.3743 47.0461,11.3723 C46.9251,11.3723 46.7841,11.3493 46.6221,11.3003 C46.4181,11.2393 46.2391,11.1403 46.0871,11.0013 C45.9321,10.8623 45.8111,10.6933 45.7251,10.4953 C45.6381,10.2983 45.5871,10.0773 45.5721,9.8363 C45.5571,9.5943 45.5891,9.3433 45.6651,9.0833 C45.7331,8.8493 45.8271,8.6463 45.9461,8.4743 C46.0631,8.3023 46.2041,8.1663 46.3661,8.0673 C46.5281,7.9663 46.7121,7.9053 46.9131,7.8833 C47.1131,7.8613 47.3311,7.8843 47.5651,7.9523 C47.8441,8.0343 48.0411,8.1513 48.1571,8.2993 C48.2721,8.4483 48.3281,8.6573 48.3231,8.9263 C48.3211,8.9623 48.3311,8.9873 48.3521,9.0023 C48.3751,9.0173 48.4011,9.0283 48.4311,9.0373 C48.4621,9.0463 48.4941,9.0483 48.5281,9.0423 C48.5351,8.8793 48.5501,8.7223 48.5691,8.5683 C48.5911,8.4143 48.6141,8.2863 48.6401,8.1833 C48.5501,8.1283 48.4621,8.0763 48.3781,8.0293 C48.2941,7.9823 48.2061,7.9373 48.1161,7.8973 C48.0251,7.8553 47.9301,7.8183 47.8271,7.7803 C47.7251,7.7453 47.6121,7.7083 47.4871,7.6713 C47.1711,7.5793 46.8771,7.5543 46.6051,7.5993 C46.3341,7.6443 46.0941,7.7363 45.8831,7.8723 C45.6731,8.0093 45.4961,8.1793 45.3521,8.3823 C45.2081,8.5853 45.1031,8.7983 45.0381,9.0213 C44.9591,9.2883 44.9241,9.5493 44.9321,9.8043 C44.9421,10.0593 44.9991,10.2953 45.1041,10.5133 C45.2121,10.7303 45.3681,10.9233 45.5771,11.0913" id="Fill-17" fill="#00BFDB"></path>
                <path d="M48.5459,11.8618 C48.4889,11.8708 48.3899,11.8578 48.2489,11.8238 C48.2069,11.8128 48.1749,11.8318 48.1509,11.8828 C48.1419,11.9038 48.1319,11.9348 48.1219,11.9718 C48.2049,12.0028 48.2959,12.0368 48.3939,12.0738 C48.4929,12.1128 48.5789,12.1498 48.6499,12.1818 C48.7289,12.2178 48.8129,12.2588 48.9009,12.3058 C48.9889,12.3528 49.0769,12.4008 49.1629,12.4488 C49.1869,12.4158 49.2019,12.3888 49.2139,12.3668 C49.2349,12.3178 49.2319,12.2808 49.1979,12.2578 C49.0669,12.1678 48.9829,12.0968 48.9459,12.0448 C48.9089,11.9938 48.9059,11.9308 48.9399,11.8598 L50.0939,9.3358 L50.9589,13.1978 C50.9699,13.2498 50.9839,13.2878 50.9989,13.3098 C51.0149,13.3318 51.0359,13.3488 51.0599,13.3608 C51.0709,13.3658 51.0849,13.3708 51.1049,13.3788 C51.1219,13.3838 51.1379,13.3868 51.1459,13.3858 L52.5879,10.2288 C52.6199,10.1578 52.6669,10.1158 52.7269,10.1038 C52.7859,10.0908 52.8799,10.1048 53.0099,10.1418 C53.0479,10.1558 53.0789,10.1338 53.1049,10.0758 C53.1139,10.0538 53.1239,10.0248 53.1339,9.9858 C53.0479,9.9548 52.9609,9.9238 52.8739,9.8888 C52.7839,9.8548 52.7019,9.8198 52.6219,9.7838 C52.5399,9.7468 52.4539,9.7048 52.3639,9.6558 C52.2749,9.6088 52.1859,9.5598 52.0989,9.5128 C52.0749,9.5448 52.0599,9.5718 52.0479,9.5928 C52.0239,9.6498 52.0279,9.6908 52.0659,9.7108 C52.1929,9.7908 52.2789,9.8608 52.3209,9.9188 C52.3639,9.9768 52.3659,10.0458 52.3309,10.1248 L51.3079,12.3648 L50.5559,8.9178 C50.5479,8.8798 50.5279,8.8488 50.4969,8.8258 C50.4659,8.8018 50.3999,8.7678 50.2959,8.7208 C50.2449,8.6988 50.1899,8.6718 50.1259,8.6398 C50.0619,8.6088 50.0029,8.5788 49.9459,8.5488 C49.8839,8.5158 49.8189,8.4798 49.7509,8.4388 C49.7409,8.4528 49.7329,8.4638 49.7279,8.4748 C49.7179,8.4878 49.7079,8.5018 49.6999,8.5208 C49.6759,8.5738 49.6809,8.6128 49.7179,8.6378 C49.8389,8.7148 49.9119,8.7788 49.9399,8.8278 C49.9659,8.8768 49.9669,8.9288 49.9419,8.9868 L48.6829,11.7438 C48.6499,11.8138 48.6049,11.8528 48.5459,11.8618" id="Fill-19" fill="#00BFDB"></path>
                <path d="M38.2002,61 C25.6282,61 15.4002,50.772 15.4002,38.2 C15.4002,25.628 25.6282,15.4 38.2002,15.4 C50.7722,15.4 61.0002,25.628 61.0002,38.2 C61.0002,50.772 50.7722,61 38.2002,61 M38.2002,15 C25.4072,15 15.0002,25.408 15.0002,38.2 C15.0002,50.993 25.4072,61.4 38.2002,61.4 C50.9932,61.4 61.4002,50.993 61.4002,38.2 C61.4002,25.408 50.9932,15 38.2002,15" id="Fill-21" fill="#00BFDB"></path>
                <path d="M38.2002,72.8003 C19.1222,72.8003 3.6002,57.2793 3.6002,38.2003 C3.6002,19.1213 19.1222,3.6003 38.2002,3.6003 C57.2782,3.6003 72.8002,19.1213 72.8002,38.2003 C72.8002,57.2793 57.2782,72.8003 38.2002,72.8003 M38.2002,2.8003 C18.6802,2.8003 2.8002,18.6803 2.8002,38.2003 C2.8002,57.7193 18.6802,73.6003 38.2002,73.6003 C57.7202,73.6003 73.6002,57.7193 73.6002,38.2003 C73.6002,18.6803 57.7202,2.8003 38.2002,2.8003" id="Fill-23" fill="#00BFDB"></path>
                <path d="M38.2002,76 C17.3572,76 0.4002,59.043 0.4002,38.2 C0.4002,17.357 17.3572,0.4 38.2002,0.4 C59.0432,0.4 76.0002,17.357 76.0002,38.2 C76.0002,59.043 59.0432,76 38.2002,76 M38.2002,5.68434189e-14 C17.1372,5.68434189e-14 0.0002,17.137 0.0002,38.2 C0.0002,59.264 17.1372,76.4 38.2002,76.4 C59.2632,76.4 76.4002,59.264 76.4002,38.2 C76.4002,17.137 59.2632,5.68434189e-14 38.2002,5.68434189e-14" id="Fill-25" fill="#00BFDB"></path>
                <path d="M30.0195,42.5684 C29.8735,42.4804 29.7715,42.3584 29.7105,42.2044 C29.6505,42.0504 29.6205,41.8054 29.6205,41.4694 C29.6205,41.1334 29.6335,40.7324 29.6625,40.2654 L29.3965,40.2514 C29.2845,40.9144 29.1785,41.4254 29.0815,41.7844 C28.9835,42.1444 28.8425,42.4124 28.6615,42.5894 C28.4795,42.7664 28.1125,42.8854 27.5625,42.9464 C27.0115,43.0074 26.1645,43.0374 25.0215,43.0374 C23.8775,43.0374 22.9515,43.0234 22.2425,42.9954 C21.5335,42.9674 21.1015,42.9324 20.9475,42.8904 C20.7925,42.8484 20.6765,42.7714 20.5975,42.6594 C20.5175,42.5474 20.4785,42.4074 20.4785,42.2394 L20.4785,37.5634 L26.9465,37.5634 L26.9465,38.3334 C26.9465,38.4554 26.9855,38.5154 27.0655,38.5154 C27.1445,38.5154 27.2955,38.4574 27.5205,38.3404 C27.7445,38.2244 27.9005,38.1284 27.9895,38.0534 C28.0785,37.9794 28.1225,37.8904 28.1225,37.7874 L28.0805,37.0874 C28.0615,36.7894 28.0515,36.5134 28.0515,36.2614 L28.0515,33.9374 L28.4725,33.6574 C28.5375,33.6204 28.5705,33.5804 28.5705,33.5384 C28.5705,33.4964 28.5375,33.4474 28.4725,33.3914 L27.3795,32.4674 L26.7645,33.3214 L19.6655,33.3214 C19.2465,33.3214 18.8585,33.2934 18.5035,33.2374 L19.0225,33.8534 C19.2645,33.7604 19.5815,33.7134 19.9745,33.7134 L26.9465,33.7134 L26.9465,37.1434 L20.4785,37.1434 L20.4785,36.3734 L20.7995,36.1214 C20.9125,36.0474 20.9675,35.9774 20.9675,35.9114 C20.9675,35.8464 20.8885,35.7764 20.7305,35.7014 L19.3725,35.1414 C19.4095,35.9164 19.4275,36.6914 19.4275,37.4654 L19.4275,42.4074 C19.4275,42.9394 19.5635,43.3194 19.8335,43.5484 C20.1045,43.7774 20.4805,43.9124 20.9605,43.9544 C21.4415,43.9964 22.2235,44.0174 23.3065,44.0174 C24.3885,44.0174 25.2955,44.0124 26.0295,44.0034 C26.7615,43.9944 27.4155,43.9664 27.9895,43.9194 C28.5635,43.8724 28.9685,43.8074 29.2075,43.7234 C29.4455,43.6394 29.6645,43.4974 29.8655,43.2964 C30.0655,43.0954 30.1775,42.9744 30.2015,42.9324 C30.2245,42.8904 30.2365,42.8414 30.2365,42.7854 C30.2365,42.7294 30.1645,42.6574 30.0195,42.5684" id="Fill-28" fill="#00BFDB"></path>
                <path d="M43.3398,32.8594 L42.8088,33.6854 L33.6938,33.6854 C33.6388,33.4244 33.5728,33.1584 33.4978,32.8874 L33.2328,32.8874 C33.2698,33.1674 33.2178,33.4734 33.0778,33.8044 C32.9388,34.1354 32.7608,34.4084 32.5458,34.6234 C32.3308,34.8384 32.2248,35.0524 32.2248,35.2674 C32.2248,35.4174 32.2688,35.5364 32.3578,35.6244 C32.4448,35.7134 32.5788,35.7574 32.7558,35.7574 C33.1198,35.7574 33.3818,35.5684 33.5398,35.1904 C33.6988,34.8124 33.7648,34.4414 33.7358,34.0774 L42.8928,34.0774 L42.3188,35.5754 L42.5418,35.6734 C42.9528,35.2344 43.2978,34.8994 43.5778,34.6654 C43.8588,34.4324 44.1148,34.3154 44.3488,34.3154 C44.5808,34.3154 44.6978,34.2854 44.6978,34.2244 C44.6978,34.1644 44.6428,34.0774 44.5298,33.9654 L43.3398,32.8594 Z" id="Fill-30" fill="#00BFDB"></path>
                <path d="M37.8242,33.1397 C37.8892,33.4007 38.0242,33.5317 38.2302,33.5317 C38.3792,33.5317 38.5192,33.4547 38.6502,33.3007 C38.7812,33.1467 38.8462,32.9947 38.8462,32.8457 C38.8462,32.5467 38.7012,32.3137 38.4122,32.1457 C38.1232,31.9777 37.7172,31.8187 37.1942,31.6697 L37.1242,31.8657 C37.4232,32.0707 37.6562,32.4957 37.8242,33.1397" id="Fill-32" fill="#00BFDB"></path>
                <mask id="mask-2" fill="white">
                    <use xlink:href="#path-1"></use>
                </mask>
                <g id="Clip-35"></g>
                <path d="M38.706,38.6974 L41.534,38.6974 L41.534,36.9334 L38.706,36.9334 L38.706,38.6974 Z M38.706,40.9094 L41.534,40.9094 L41.534,39.0754 L38.706,39.0754 L38.706,40.9094 Z M34.87,38.6974 L37.712,38.6974 L37.712,36.9334 L34.87,36.9334 L34.87,38.6974 Z M34.87,40.9094 L37.712,40.9094 L37.712,39.0754 L34.87,39.0754 L34.87,40.9094 Z M42.878,36.5834 L42.01,35.8974 L41.464,36.5274 L38.706,36.5274 L38.706,35.2394 L38.973,35.0434 C39.019,35.0064 39.065,34.9664 39.112,34.9244 C39.159,34.8824 39.183,34.8404 39.183,34.7984 C39.183,34.7564 39.099,34.7074 38.931,34.6514 L37.67,34.2174 C37.698,34.6934 37.712,35.1184 37.712,35.4914 L37.712,36.5274 L35.094,36.5274 L33.807,35.9394 C33.844,36.4344 33.862,36.8634 33.862,37.2274 L33.862,40.2654 C33.862,40.8724 33.857,41.3154 33.849,41.5954 L33.807,42.3234 C33.807,42.4914 33.841,42.5754 33.911,42.5754 C33.981,42.5754 34.128,42.5224 34.353,42.4144 C34.576,42.3074 34.719,42.2204 34.779,42.1554 C34.84,42.0904 34.87,42.0104 34.87,41.9174 L34.87,41.2874 L37.712,41.2874 L37.712,42.5194 C37.712,43.1264 37.707,43.5694 37.698,43.8494 L37.67,44.5634 C37.67,44.7314 37.7,44.8154 37.761,44.8154 C37.822,44.8154 38.004,44.7504 38.308,44.6194 C38.61,44.4884 38.762,44.3724 38.762,44.2694 L38.72,43.5834 C38.711,43.2754 38.706,42.9304 38.706,42.5474 L38.706,41.2874 L41.534,41.2874 L41.534,42.0154 C41.534,42.1554 41.583,42.2254 41.682,42.2254 C41.779,42.2254 41.959,42.1464 42.22,41.9874 C42.481,41.8294 42.612,41.6794 42.612,41.5394 L42.57,40.8814 C42.552,40.6294 42.542,40.3494 42.542,40.0414 L42.542,37.1854 L42.878,36.9474 C42.98,36.8824 43.032,36.8264 43.032,36.7794 C43.032,36.7334 42.98,36.6674 42.878,36.5834 Z" id="Fill-34" fill="#00BFDB" mask="url(#mask-2)"></path>
                <path d="M55.5479,41.4556 C55.9489,41.1016 56.4159,40.6156 56.9479,39.9996 C57.0229,39.8966 57.1159,39.8106 57.2289,39.7406 C57.3399,39.6706 57.4539,39.6356 57.5709,39.6356 C57.6879,39.6356 57.7459,39.6026 57.7459,39.5376 C57.7459,39.4726 57.6859,39.3836 57.5649,39.2716 L56.6409,38.4736 C55.9779,39.7616 55.0509,40.9256 53.8609,41.9666 C52.6709,43.0076 51.3339,43.8306 49.8509,44.4376 L49.9769,44.7176 C52.0209,44.0826 53.7929,43.0796 55.2959,41.7076 C56.0989,42.4546 56.6079,43.2846 56.8219,44.1996 C56.8599,44.3676 56.8969,44.4766 56.9349,44.5286 C56.9719,44.5796 57.0229,44.6056 57.0879,44.6056 C57.2839,44.6056 57.4499,44.4956 57.5849,44.2766 C57.7209,44.0576 57.7879,43.7986 57.7879,43.4996 C57.7879,43.2006 57.6019,42.8856 57.2289,42.5546 C56.8549,42.2236 56.2949,41.8566 55.5479,41.4556" id="Fill-36" fill="#00BFDB" mask="url(#mask-2)"></path>
                <path d="M58.334,34.3858 L57.382,33.2658 L56.515,34.3158 L51.811,34.3158 C51.391,34.3158 51.003,34.2878 50.648,34.2318 L51.181,34.8478 C51.451,34.7548 51.769,34.7078 52.132,34.7078 L53.168,34.7078 C53.037,35.1278 52.783,35.6568 52.405,36.2968 C52.027,36.9358 51.733,37.3258 51.523,37.4658 C51.313,37.6058 51.11,37.6668 50.914,37.6478 L51.278,38.6138 C51.307,38.7068 51.349,38.7538 51.404,38.7538 C51.46,38.7538 51.53,38.7348 51.614,38.6978 C52.211,38.4458 52.832,38.2778 53.477,38.1938 L54.302,38.0958 C53.397,39.4868 51.898,40.8588 49.809,42.2118 L49.92,42.4778 C51.245,41.8428 52.384,41.1248 53.336,40.3218 C54.288,39.5188 55.203,38.4408 56.08,37.0878 C56.22,36.8828 56.376,36.7778 56.549,36.7728 C56.722,36.7678 56.809,36.7238 56.809,36.6398 C56.809,36.5558 56.762,36.4858 56.668,36.4298 L55.59,35.6878 C55.235,36.4998 54.891,37.1618 54.554,37.6758 L52.076,37.7318 C52.851,36.8828 53.359,36.2708 53.603,35.8978 C53.742,35.6828 53.852,35.5408 53.932,35.4708 C54.011,35.4008 54.104,35.3518 54.211,35.3238 C54.318,35.2958 54.372,35.2538 54.372,35.1978 C54.372,35.1418 54.316,35.0808 54.204,35.0158 L53.63,34.7078 L58.223,34.7078 C58.391,34.7078 58.475,34.6818 58.475,34.6308 C58.475,34.5788 58.428,34.4978 58.334,34.3858" id="Fill-37" fill="#00BFDB" mask="url(#mask-2)"></path>
                <path d="M53.9453,33.6924 C53.9873,33.9964 54.1103,34.1474 54.3163,34.1474 C54.5213,34.1474 54.6873,34.0684 54.8133,33.9094 C54.9393,33.7514 55.0023,33.5454 55.0023,33.2934 C55.0023,32.8364 54.3953,32.3414 53.1823,31.8094 L53.0143,31.9774 C53.3033,32.3044 53.5203,32.5954 53.6653,32.8524 C53.8093,33.1094 53.9033,33.3894 53.9453,33.6924" id="Fill-38" fill="#00BFDB" mask="url(#mask-2)"></path>
                <path d="M49.7666,39.0474 C49.7936,39.1594 49.8306,39.2484 49.8776,39.3134 C49.9246,39.3794 50.0066,39.4114 50.1226,39.4114 C50.2406,39.4114 50.3496,39.3254 50.4526,39.1524 C50.5546,38.9804 50.6066,38.7864 50.6066,38.5714 C50.6066,38.2544 50.4406,37.9764 50.1096,37.7384 C49.7776,37.5004 49.3506,37.2784 48.8286,37.0734 L48.8286,35.7574 L51.0116,35.7574 C51.1336,35.7574 51.1946,35.7364 51.1946,35.6944 C51.1946,35.6524 51.1576,35.5854 51.0816,35.4914 L50.2556,34.5114 L49.5146,35.3794 L48.8286,35.3794 L48.8286,32.9014 L49.2346,32.6214 C49.2996,32.5654 49.3316,32.5024 49.3316,32.4324 C49.3316,32.3624 49.2576,32.3044 49.1086,32.2574 L47.8206,31.7394 C47.8676,32.6354 47.8906,33.4054 47.8906,34.0494 L47.8906,35.3794 L46.6586,35.3794 C46.1446,35.3794 45.7056,35.3564 45.3416,35.3094 L45.8466,35.9114 C46.1076,35.8094 46.4766,35.7574 46.9526,35.7574 L47.7786,35.7574 C47.2836,37.6144 46.4666,39.6124 45.3286,41.7494 L45.5376,41.8334 C46.5646,40.5264 47.3486,39.1874 47.8906,37.8154 L47.8906,41.0354 C47.8906,41.8384 47.8706,42.5334 47.8336,43.1214 L47.7646,44.4794 C47.7646,44.6564 47.7966,44.7454 47.8626,44.7454 C47.9276,44.7454 48.1116,44.6614 48.4146,44.4934 C48.7186,44.3254 48.8706,44.1624 48.8706,44.0034 C48.8706,43.9664 48.8636,43.7394 48.8496,43.3244 C48.8346,42.9094 48.8286,42.2534 48.8286,41.3574 L48.8286,37.4094 C49.3036,37.8854 49.6176,38.4314 49.7666,39.0474" id="Fill-39" fill="#00BFDB" mask="url(#mask-2)"></path>
                <polygon id="Fill-40" fill="#00BFDB" mask="url(#mask-2)" points="39.084 67.6445 38.36 66.1785 37.638 67.6445 36.02 67.8795 37.19 69.0195 36.914 70.6305 38.36 69.8705 39.807 70.6305 39.53 69.0195 40.701 67.8795"></polygon>
                <polygon id="Fill-41" fill="#00BFDB" mask="url(#mask-2)" points="51.167 64.7446 50.443 63.2786 49.721 64.7446 48.104 64.9796 49.273 66.1196 48.997 67.7306 50.443 66.9706 51.891 67.7306 51.614 66.1196 52.784 64.9796"></polygon>
                <polygon id="Fill-42" fill="#00BFDB" mask="url(#mask-2)" points="27 64.9644 26.277 63.4994 25.554 64.9644 23.937 65.1994 25.106 66.3404 24.831 67.9514 26.277 67.1904 27.724 67.9514 27.447 66.3404 28.618 65.1994"></polygon>
            </g>
        </g>
    </g>
</svg>