<?xml version="1.0" encoding="UTF-8"?>
<svg width="27px" height="26px" viewBox="0 0 27 26" version="1.1" xmlns="http://www.w3.org/2000/svg" xmlns:xlink="http://www.w3.org/1999/xlink">
    <!-- Generator: Sketch 49.3 (51167) - http://www.bohemiancoding.com/sketch -->
    <title>找店@2x</title>
    <desc>Created with Sketch.</desc>
    <defs></defs>
    <g id="门店管理" stroke="none" stroke-width="1" fill="none" fill-rule="evenodd">
        <g id="首页_全部应用" transform="translate(-36.000000, -282.000000)" fill="#FFFFFF">
            <g id="找店" transform="translate(36.000000, 282.000000)">
                <path d="M25,12.6307876 L25,22.9784336 C25,24.6402951 24.0440124,26 22.8755831,26 L4.12441694,26 C2.95704983,26 2,24.6402951 2,22.9784336 L2,12.6302972 C2.00093055,12.6308488 2.00185718,12.6313992 2.00278538,12.6319512 C2.46878886,12.8760747 3.02387466,13 3.65282268,13 C4.73031584,12.9939435 5.74648097,12.5005718 6.43765233,11.6470713 C6.56523253,11.4896023 6.75324546,11.3987548 6.95110669,11.3987548 C7.14941557,11.3987548 7.3374285,11.4896023 7.4650087,11.6475372 C8.15125591,12.4959129 9.16294454,12.9864893 10.2395424,12.9925458 C11.2982343,12.9864893 12.3009699,12.4945153 12.9845312,11.6424124 C13.0789853,11.5245436 13.203432,11.4472068 13.336384,11.4122655 C13.3914449,11.3982889 13.4581447,11.3875736 13.5033574,11.3913007 C13.5566277,11.3917665 13.6094504,11.3982889 13.6613778,11.4117996 C13.7956727,11.446275 13.920567,11.5240778 14.0159164,11.6424124 C14.6990301,12.4945153 15.7022134,12.9864893 16.76762,12.9925458 C17.8375031,12.9864893 18.8487441,12.4959129 19.5354389,11.6475372 C19.6625715,11.4896023 19.8505844,11.3987548 20.0488933,11.3987548 C20.2467545,11.3987548 20.4347675,11.4896023 20.5623477,11.6470713 C21.253519,12.5005718 22.2696842,12.9939435 23.3507585,13 C23.9772857,13 24.5330418,12.875709 25,12.6307876 Z" id="Combined-Shape"></path>
                <path d="M20.0488933,9.39875482 C19.8505844,9.39875482 19.6625715,9.4896023 19.5354389,9.64753716 C18.8487441,10.4959129 17.8375031,10.9864893 16.76762,10.9925458 C15.7022134,10.9864893 14.6990301,10.4945153 14.0159164,9.64241243 C13.920567,9.52407776 13.7956727,9.44627504 13.6613778,9.41179958 C13.6094504,9.39828893 13.5566277,9.39176655 13.5033574,9.39130066 C13.4581447,9.38757359 13.3914449,9.39828893 13.336384,9.41226547 C13.203432,9.44720681 13.0789853,9.52454364 12.9845312,9.64241243 C12.3009699,10.4945153 11.2982343,10.9864893 10.2395424,10.9925458 C9.16294454,10.9864893 8.15125591,10.4959129 7.4650087,9.64753716 C7.3374285,9.4896023 7.14941557,9.39875482 6.95110669,9.39875482 C6.75324546,9.39875482 6.56523253,9.4896023 6.43765233,9.64707128 C5.74648097,10.5005718 4.73031584,10.9939435 3.65282268,11 C3.02387466,11 2.46878886,10.8760747 2.00278538,10.6319512 C1.98711763,10.6226335 1.97189754,10.6137817 1.93071375,10.5914193 C0.739965183,9.93172674 0,8.64821482 0,7.24124349 C0,6.82846978 0.060880378,6.42967261 0.180402885,6.0560332 C0.185774683,6.03926136 0.196965929,5.98894583 0.204128326,5.95586803 L2.17154937,1.12417941 C2.17826411,1.10740756 2.18453121,1.09016984 2.18990301,1.07293211 C2.40522258,0.401126594 3.00373042,0 3.79159413,0 L23.2088535,0 C23.9962696,0 24.5947774,0.401126594 24.810097,1.07293211 C24.8154688,1.09016984 24.8217359,1.10740756 24.8284506,1.12417941 C24.8284506,1.12417941 26.6126285,5.28963566 26.7985576,5.96332218 C26.9844866,6.6370087 27,6.82846978 27,7.24124349 C27,8.64821482 26.2600348,9.93172674 25.0692862,10.5914193 C25.0603333,10.5960781 25.0513803,10.6012028 25.0084059,10.6263606 C24.5397165,10.8742112 23.9810495,11 23.3507585,11 C22.2696842,10.9939435 21.253519,10.5005718 20.5623477,9.64707128 C20.4347675,9.4896023 20.2467545,9.39875482 20.0488933,9.39875482 Z M4.75,2 C4.33578644,2 4,2.33578644 4,2.75 C4,3.16421356 4.33578644,3.5 4.75,3.5 L22.25,3.5 C22.6642136,3.5 23,3.16421356 23,2.75 C23,2.33578644 22.6642136,2 22.25,2 L4.75,2 Z" id="Combined-Shape"></path>
            </g>
        </g>
    </g>
</svg>