<?xml version="1.0" encoding="UTF-8"?>
<svg width="20px" height="20px" viewBox="0 0 20 20" version="1.1" xmlns="http://www.w3.org/2000/svg" xmlns:xlink="http://www.w3.org/1999/xlink">
    <!-- Generator: Sketch 49.3 (51167) - http://www.bohemiancoding.com/sketch -->
    <title>定位@2x</title>
    <desc>Created with Sketch.</desc>
    <defs></defs>
    <g id="新增页面" stroke="none" stroke-width="1" fill="none" fill-rule="evenodd">
        <g id="定位" transform="translate(-32.000000, -353.000000)" fill="#484848">
            <g id="位置" transform="translate(21.000000, 342.000000)">
                <path d="M21.7137826,29.5463117 L21.7137826,28.1425014 C21.7137826,27.7487265 21.3937383,27.4288042 21.000061,27.4288042 C20.6062861,27.4288042 20.2862174,27.7487265 20.2862174,28.1425014 L20.2862174,29.5463117 C16.1187562,29.2037576 12.7974875,25.8799986 12.4525408,21.7137826 L13.8574986,21.7137826 C14.2512735,21.7137826 14.5712202,21.394959 14.5712202,21.000061 C14.5712202,20.605041 14.2512735,20.2862174 13.8574986,20.2862174 L12.4525408,20.2862174 C12.7962424,16.1187562 16.1187562,12.7974875 20.2862174,12.453786 L20.2862174,13.8574986 C20.2862174,14.2525186 20.6062861,14.5724653 21.000061,14.5724653 C21.3937383,14.5724653 21.7137826,14.2525186 21.7137826,13.8574986 L21.7137826,12.453786 C25.8812438,12.7974875 29.2025125,16.1187562 29.5475568,20.2862174 L28.1425014,20.2862174 C27.7487265,20.2862174 27.4287798,20.605041 27.4287798,21.000061 C27.4287798,21.394959 27.7487265,21.7137826 28.1425014,21.7137826 L29.5475568,21.7137826 C29.2037576,25.8799986 25.8799986,29.2037576 21.7137826,29.5463117 M21.000061,11 C15.4774957,11 11,15.476275 11,21.000061 C11,26.5237494 15.4774957,31 21.000061,31 C26.5237494,31 31,26.5237494 31,21.000061 C31,15.476275 26.5237494,11 21.000061,11 M21.000061,23.143716 C19.8162461,23.143716 18.8575291,22.1825088 18.8575291,21.000061 C18.8575291,19.8162461 19.8174912,18.8575291 21.000061,18.8575291 C22.1825088,18.8575291 23.1424709,19.8162461 23.1424709,21.000061 C23.1424709,22.1825088 22.1825088,23.143716 21.000061,23.143716 M21.000061,17.4287188 C19.0274756,17.4287188 17.4287188,19.0274756 17.4287188,21.000061 C17.4287188,22.9725488 19.0274756,24.5713056 21.000061,24.5713056 C22.9725488,24.5713056 24.5712812,22.9725488 24.5712812,21.000061 C24.5712812,19.0274756 22.9725488,17.4287188 21.000061,17.4287188" id="定位"></path>
            </g>
        </g>
    </g>
</svg>