<?xml version="1.0" encoding="UTF-8"?>
<svg width="26px" height="22px" viewBox="0 0 26 22" version="1.1" xmlns="http://www.w3.org/2000/svg" xmlns:xlink="http://www.w3.org/1999/xlink">
    <!-- Generator: Sketch 49.3 (51167) - http://www.bohemiancoding.com/sketch -->
    <title>上传 (2)@2x</title>
    <desc>Created with Sketch.</desc>
    <defs></defs>
    <g id="门店管理" stroke="none" stroke-width="1" fill="none" fill-rule="evenodd">
        <g id="首页" transform="translate(-312.000000, -284.000000)" fill="#FFFFFF">
            <g id="上传-(2)" transform="translate(312.000000, 284.000000)">
                <path d="M24.3750298,22 L1.62497025,22 C0.704209844,22 0,21.2849584 0,20.3500354 L0,1.64996455 C0,0.715009346 0.704209844,0 1.62497025,0 L9.64162554,0 C10.075044,0 10.5083673,0.165031904 10.7791269,0.494966807 L12.5124518,2.25495263 C12.8375157,2.58504866 13.2166616,2.74995166 13.6499532,2.74995166 L24.3750298,2.74995166 C25.2958219,2.74995166 26,3.46496101 26,4.40004512 L26,20.3500354 C26,21.2849584 25.2958219,22 24.3750298,22 Z M13.8413754,6.6164789 C13.621766,6.39601223 13.3470934,6.28571429 13.0176151,6.28571429 C12.7429103,6.28571429 12.413432,6.39601223 12.1936939,6.6164789 L7.58012786,11.5789497 C6.92101021,12.2957894 7.41529213,13.3985428 8.40401686,13.3985428 L10.9304253,13.3985428 L10.9304253,16.7067705 C10.9304253,17.3133123 11.4248359,17.8095238 12.0288903,17.8095238 L14.225917,17.8095238 C14.8301001,17.8095238 15.324382,17.3133123 15.324382,16.7067705 L15.324382,13.3985428 L17.6311811,13.3985428 C18.5648426,13.3985428 19.0592532,12.2406405 18.4549736,11.5789497 L13.8413754,6.6164789 Z" id="Fill-1"></path>
            </g>
        </g>
    </g>
</svg>