<?xml version="1.0" encoding="UTF-8"?>
<svg width="14px" height="14px" viewBox="0 0 14 14" version="1.1" xmlns="http://www.w3.org/2000/svg" xmlns:xlink="http://www.w3.org/1999/xlink">
    <!-- Generator: Sketch 49.3 (51167) - http://www.bohemiancoding.com/sketch -->
    <title>Search@2x</title>
    <desc>Created with Sketch.</desc>
    <defs></defs>
    <g id="巡店执行" stroke="none" stroke-width="1" fill="none" fill-rule="evenodd">
        <g id="自建任务" transform="translate(-342.000000, -84.000000)" fill="#484848" fill-rule="nonzero">
            <g id="分类" transform="translate(0.000000, 64.000000)">
                <path d="M351.636109,30.8613197 C351.343215,30.5684265 351.343215,30.0935527 351.636109,29.8006595 C351.929002,29.5077663 352.403876,29.5077663 352.696769,29.8006595 L355.329708,32.433599 C355.622602,32.7264922 355.622602,33.201366 355.329708,33.4942592 C355.036815,33.7871524 354.561941,33.7871524 354.269048,33.4942592 L351.636109,30.8613197 Z M348.25,32.5 C344.79822,32.5 342,29.7017797 342,26.25 C342,22.7982203 344.79822,20 348.25,20 C351.70178,20 354.5,22.7982203 354.5,26.25 C354.5,29.7017797 351.70178,32.5 348.25,32.5 Z M348.25,31 C350.873353,31 353,28.8733526 353,26.25 C353,23.6266474 350.873353,21.5 348.25,21.5 C345.626647,21.5 343.5,23.6266474 343.5,26.25 C343.5,28.8733526 345.626647,31 348.25,31 Z" id="Search"></path>
            </g>
        </g>
    </g>
</svg>