<?xml version="1.0" encoding="UTF-8"?>
<svg width="21px" height="26px" viewBox="0 0 21 26" version="1.1" xmlns="http://www.w3.org/2000/svg" xmlns:xlink="http://www.w3.org/1999/xlink">
    <!-- Generator: Sketch 49.3 (51167) - http://www.bohemiancoding.com/sketch -->
    <title>任务@2x</title>
    <desc>Created with Sketch.</desc>
    <defs></defs>
    <g id="门店管理" stroke="none" stroke-width="1" fill="none" fill-rule="evenodd">
        <g id="首页" transform="translate(-223.000000, -281.000000)" fill="#FFFFFF">
            <g id="任务" transform="translate(223.000000, 281.000000)">
                <path d="M15.2991862,2.22868552 L14.8442518,2.22868552 C14.3894754,2.22868552 14.111128,1.84098727 14.111128,1.45328901 C14.1030985,0.648873082 13.4520722,0.000857247796 12.6511399,0 L8.35469535,0 C7.55354169,0.000380999021 6.90200964,0.648650833 6.89398008,1.45328901 C6.89398008,1.93934851 6.5273708,2.22868552 6.16072991,2.22868552 L5.61294983,2.22868552 C5.15801544,2.22868552 4.87966805,2.61638377 4.87966805,3.00408203 L4.87966805,5.33198604 C4.87966805,5.81804554 5.24630894,6.10738255 5.61294983,6.10738255 L15.2999449,6.10738255 C15.7547212,6.10738255 16.033195,5.7196843 16.033195,5.33198604 L16.033195,3.00497103 C16.0323099,2.51891152 15.6657006,2.22868552 15.2991862,2.22868552 Z M10.5534975,4.75245478 C9.73208026,4.75245478 8.99968363,3.97705828 8.99968363,3.10244327 C8.99968363,2.22782827 9.7329338,1.45243177 10.5534975,1.45243177 C11.4671598,1.45243177 12.1073113,2.22782827 12.1073113,3.10244327 C12.1073113,4.16879603 11.3749147,4.75245478 10.5534975,4.75245478 Z" id="Fill-1"></path>
                <path d="M19.3475112,3.22818792 L18.8910102,3.22818792 C18.4355242,3.23300508 18.0676207,3.52270005 18.0667642,4.00787019 L18.0667642,7.39987789 C18.0667642,7.88504804 17.6989876,8.1739824 17.3310841,8.1739824 L3.66815455,8.27289259 C3.21250997,8.27289259 2.93234756,7.88590371 2.93234756,7.49805916 L2.93234756,4.10601977 C2.93234756,3.62088132 2.56447578,3.33204203 2.19657229,3.33204203 L1.74108632,3.33204203 C0.548936884,3.23389245 0,4.00787019 0,5.07636006 L0,23.9660504 C0,24.8390334 0.823389465,26 1.92706823,26 L19.0721705,26 C19.9890108,26 21,24.936359 21,23.9660504 L21,4.97336163 C21,4.10107585 20.3576439,3.22818792 19.3475112,3.22818792 Z M11.1293503,19.0697585 L5.5618837,19.0697585 C5.00117822,19.0697585 4.54680249,18.6158048 4.54680249,18.0556201 C4.54680249,17.4955939 5.00117822,17.0414817 5.5618837,17.0414817 L11.1268761,17.0414817 C11.6880574,17.0414817 12.1419573,17.4950868 12.1419573,18.0556201 C12.1419573,18.6163119 11.6905316,19.0697585 11.1293503,19.0697585 Z M15.342318,15.0474004 L5.5618837,15.0474004 C5.00117822,15.0474004 4.54680249,14.5932883 4.54680249,14.033262 C4.54680249,13.4730773 5.00117822,13.0191236 5.5618837,13.0191236 L15.3399706,13.0191236 C15.9010251,13.0191236 16.3550518,13.4725703 16.3550518,14.033262 C16.3550518,14.5937953 15.903531,15.0474004 15.342318,15.0474004 Z" id="Fill-3"></path>
            </g>
        </g>
    </g>
</svg>