<?xml version="1.0" encoding="UTF-8"?>
<svg width="22px" height="25px" viewBox="0 0 22 25" version="1.1" xmlns="http://www.w3.org/2000/svg" xmlns:xlink="http://www.w3.org/1999/xlink">
    <!-- Generator: Sketch 49.3 (51167) - http://www.bohemiancoding.com/sketch -->
    <title>资料 (1)@2x</title>
    <desc>Created with Sketch.</desc>
    <defs></defs>
    <g id="门店管理" stroke="none" stroke-width="1" fill="none" fill-rule="evenodd">
        <g id="首页_全部应用" transform="translate(-131.000000, -382.000000)" fill="#FFFFFF">
            <g id="资料-(1)" transform="translate(131.500000, 382.000000)">
                <path d="M18.4799434,0 L7.98000492,0 C7.3079242,0 6.71997662,0.541687673 6.71997662,1.25003204 L6.71997662,5.41663259 C6.71997662,6.12497696 6.17395718,6.66666463 5.45994832,6.66666463 L1.2600283,6.66666463 C0.546019441,6.66666463 0,7.20835231 0,7.91669668 L0,22.500058 C0,23.8750291 1.13396702,25 2.5200566,25 L18.4799434,25 C19.866033,25 21,23.8750291 21,22.500058 L21,2.50006409 C21,1.12497086 19.866033,0 18.4799434,0 Z M15.7476393,18.7172775 L5.25236069,18.7172775 C4.91640797,18.7172775 4.62264151,18.4424841 4.62264151,18.1283442 C4.62264151,17.8140891 4.91640797,17.539267 5.25236069,17.539267 L15.7476393,17.539267 C16.083469,17.539267 16.3773585,17.8140891 16.3773585,18.1283442 C16.3773585,18.4424841 16.083469,18.7172775 15.7476393,18.7172775 Z M15.7476393,14.5287958 L5.25236069,14.5287958 C4.91640797,14.5287958 4.62264151,14.2539142 4.62264151,13.939805 C4.62264151,13.6256957 4.91640797,13.3507853 5.25236069,13.3507853 L15.7476393,13.3507853 C16.083469,13.3507853 16.3773585,13.6256957 16.3773585,13.939805 C16.3773585,14.2539142 16.083469,14.5287958 15.7476393,14.5287958 Z M15.7517394,10.3403141 L9.07847978,10.3403141 C8.74483666,10.3403141 8.45283019,10.065492 8.45283019,9.75135204 C8.45283019,9.4371258 8.74483666,9.16230366 9.07847978,9.16230366 L15.7517394,9.16230366 C16.0853826,9.16230366 16.3773585,9.4371258 16.3773585,9.75135204 C16.3773585,10.065492 16.0853826,10.3403141 15.7517394,10.3403141 Z M0.855074234,5.4973822 L4.13654698,5.4973822 C4.86104987,5.4973822 5.41509434,4.9557243 5.41509434,4.24741886 L5.41509434,0.83094598 C5.41509434,0.372627106 5.15942232,0.247694855 4.81838064,0.580989931 L0.556701777,4.87241579 C0.258360534,5.20571086 0.386274576,5.4973822 0.855074234,5.4973822 Z"></path>
            </g>
        </g>
    </g>
</svg>