<?xml version="1.0" encoding="UTF-8"?>
<svg width="77px" height="77px" viewBox="0 0 77 77" version="1.1" xmlns="http://www.w3.org/2000/svg" xmlns:xlink="http://www.w3.org/1999/xlink">
    <!-- Generator: Sketch 49.3 (51167) - http://www.bohemiancoding.com/sketch -->
    <title>印章@2x</title>
    <desc>Created with Sketch.</desc>
    <defs></defs>
    <g id="巡店执行" stroke="none" stroke-width="1" fill="none" fill-rule="evenodd">
        <g id="任务编辑" transform="translate(-279.000000, -88.000000)" fill="#BEC2CA">
            <g id="印章" transform="translate(317.750000, 126.433013) rotate(-30.000000) translate(-317.750000, -126.433013) translate(279.250000, 87.933013)">
                <path d="M38.2002,63.3003 C24.3602,63.3003 13.1002,52.0403 13.1002,38.2003 C13.1002,24.3603 24.3602,13.1003 38.2002,13.1003 C52.0402,13.1003 63.3002,24.3603 63.3002,38.2003 C63.3002,52.0403 52.0402,63.3003 38.2002,63.3003 M38.2002,12.3003 C23.9192,12.3003 12.3002,23.9193 12.3002,38.2003 C12.3002,52.4813 23.9192,64.1003 38.2002,64.1003 C52.4812,64.1003 64.1002,52.4813 64.1002,38.2003 C64.1002,23.9193 52.4812,12.3003 38.2002,12.3003" id="Fill-1"></path>
                <path d="M23.0547,10.4683 C23.1997,10.3893 23.3317,10.3443 23.4507,10.3333 C23.5707,10.3223 23.6787,10.3353 23.7757,10.3743 C23.8727,10.4133 23.9587,10.4723 24.0337,10.5523 C24.1097,10.6323 24.1757,10.7263 24.2347,10.8323 C24.3727,11.0883 24.4067,11.3053 24.3327,11.4843 C24.2607,11.6613 24.1037,11.8173 23.8617,11.9483 L23.5867,12.0983 L22.7817,10.6173 L23.0547,10.4683 Z M21.8897,11.0153 C22.0367,10.9573 22.1467,10.9293 22.2167,10.9313 C22.2867,10.9343 22.3397,10.9693 22.3787,11.0373 L23.8147,13.6733 C23.8517,13.7413 23.8537,13.8023 23.8227,13.8533 C23.7887,13.9043 23.7117,13.9823 23.5887,14.0833 C23.5577,14.1103 23.5557,14.1473 23.5817,14.1953 C23.5937,14.2163 23.6117,14.2413 23.6377,14.2733 C23.7337,14.2103 23.8377,14.1473 23.9487,14.0793 C24.0607,14.0123 24.1597,13.9543 24.2497,13.9053 C24.3987,13.8233 24.5367,13.7523 24.6677,13.6873 C24.7977,13.6223 24.9157,13.5673 25.0197,13.5193 C25.0077,13.4823 24.9957,13.4493 24.9827,13.4253 C24.9527,13.3733 24.9177,13.3563 24.8707,13.3713 C24.7087,13.4333 24.5797,13.4683 24.4867,13.4773 C24.3927,13.4863 24.3247,13.4503 24.2817,13.3713 L23.7027,12.3103 L24.1547,12.0653 C24.3287,11.9683 24.4707,11.8533 24.5777,11.7183 C24.6867,11.5833 24.7627,11.4453 24.8087,11.3023 C24.8537,11.1583 24.8687,11.0163 24.8577,10.8753 C24.8457,10.7343 24.8107,10.6093 24.7497,10.4973 C24.5977,10.2183 24.3797,10.0413 24.0977,9.9663 C23.8147,9.8923 23.4887,9.9573 23.1157,10.1593 L22.3857,10.5583 C22.2887,10.6113 22.1847,10.6633 22.0737,10.7173 C21.9607,10.7713 21.8557,10.8223 21.7557,10.8673 C21.7637,10.8983 21.7737,10.9273 21.7867,10.9503 C21.8187,11.0053 21.8517,11.0283 21.8897,11.0153 Z" id="Fill-3"></path>
                <path d="M27.2217,10.6538 L26.1877,11.0818 L26.1627,9.5288 L27.2217,10.6538 Z M25.6507,13.1148 C25.7307,13.0698 25.8067,13.0308 25.8807,12.9938 C25.9547,12.9588 26.0297,12.9268 26.1027,12.8968 C26.2067,12.8528 26.3167,12.8118 26.4277,12.7718 C26.5387,12.7318 26.6447,12.6948 26.7457,12.6628 C26.7387,12.6238 26.7307,12.5928 26.7207,12.5708 C26.7107,12.5498 26.6997,12.5328 26.6837,12.5188 C26.6667,12.5068 26.6467,12.5038 26.6187,12.5098 C26.3847,12.5698 26.2497,12.5598 26.2187,12.4848 C26.2067,12.4558 26.2007,12.4158 26.2007,12.3648 L26.1877,11.3428 L27.4017,10.8408 L28.1177,11.5978 C28.1447,11.6248 28.1637,11.6478 28.1717,11.6708 C28.1917,11.7168 28.1777,11.7648 28.1287,11.8118 C28.0807,11.8608 28.0137,11.9128 27.9257,11.9698 C27.9147,11.9738 27.9067,11.9858 27.8987,12.0038 C27.8907,12.0208 27.8947,12.0468 27.9077,12.0798 C27.9157,12.1008 27.9327,12.1288 27.9547,12.1618 C28.0567,12.1108 28.1717,12.0558 28.3007,11.9968 C28.4297,11.9368 28.5447,11.8858 28.6467,11.8438 C28.7437,11.8038 28.8507,11.7628 28.9647,11.7218 C29.0797,11.6788 29.1977,11.6398 29.3167,11.5978 C29.3087,11.5588 29.2997,11.5288 29.2907,11.5078 C29.2777,11.4738 29.2617,11.4548 29.2437,11.4468 C29.2267,11.4398 29.2047,11.4358 29.1797,11.4388 C29.1027,11.4578 29.0207,11.4678 28.9317,11.4698 C28.8437,11.4728 28.7777,11.4538 28.7357,11.4118 L26.0687,8.7008 C26.0367,8.7048 26.0137,8.7108 25.9997,8.7168 C25.9547,8.7338 25.9337,8.7788 25.9337,8.8508 L25.9287,12.5538 C25.9277,12.6228 25.9047,12.6818 25.8597,12.7318 C25.8147,12.7838 25.7387,12.8418 25.6337,12.9058 C25.6077,12.9218 25.5917,12.9408 25.5897,12.9618 C25.5877,12.9838 25.5937,13.0078 25.6037,13.0328 C25.6157,13.0618 25.6307,13.0898 25.6507,13.1148 Z" id="Fill-5"></path>
                <path d="M27.7441,8.1148 C27.7481,8.1248 27.7501,8.1328 27.7521,8.1398 C27.7601,8.1678 27.7701,8.1888 27.7851,8.2048 C27.8011,8.2198 27.8181,8.2278 27.8381,8.2258 C27.9401,8.2138 28.0251,8.2128 28.0891,8.2238 C28.1541,8.2368 28.2131,8.2658 28.2671,8.3118 L29.7011,9.7398 L30.0511,10.9588 C30.0751,11.0408 30.0581,11.1058 30.0031,11.1538 C29.9471,11.1998 29.8491,11.2598 29.7111,11.3318 C29.6761,11.3498 29.6661,11.3858 29.6801,11.4388 C29.6811,11.4468 29.6851,11.4558 29.6881,11.4668 C29.6911,11.4778 29.6961,11.4878 29.7021,11.4938 C29.7071,11.5098 29.7131,11.5198 29.7181,11.5268 C29.8031,11.4978 29.8891,11.4688 29.9741,11.4408 C30.0491,11.4148 30.1271,11.3878 30.2091,11.3598 C30.2921,11.3338 30.3651,11.3098 30.4291,11.2918 C30.4931,11.2728 30.5681,11.2538 30.6541,11.2328 C30.7401,11.2128 30.8221,11.1928 30.8981,11.1758 C30.9861,11.1538 31.0761,11.1328 31.1681,11.1098 C31.1661,11.1018 31.1641,11.0908 31.1641,11.0738 C31.1611,11.0658 31.1601,11.0558 31.1581,11.0448 C31.1561,11.0328 31.1561,11.0228 31.1521,11.0148 C31.1391,10.9628 31.1091,10.9388 31.0641,10.9428 C30.9101,10.9628 30.7981,10.9648 30.7261,10.9508 C30.6551,10.9368 30.6071,10.8878 30.5841,10.8038 L30.2191,9.5358 L30.6701,7.6458 C30.6881,7.5678 30.7211,7.5068 30.7671,7.4628 C30.8141,7.4188 30.9001,7.3678 31.0271,7.3098 C31.0661,7.2878 31.0781,7.2498 31.0621,7.1968 C31.0601,7.1888 31.0571,7.1808 31.0531,7.1748 C31.0491,7.1678 31.0451,7.1578 31.0421,7.1478 C31.0351,7.1358 31.0291,7.1248 31.0251,7.1088 C30.9321,7.1438 30.8401,7.1778 30.7441,7.2108 C30.6501,7.2438 30.5581,7.2728 30.4731,7.2988 C30.3791,7.3258 30.2741,7.3518 30.1611,7.3788 C30.0491,7.4048 29.9491,7.4268 29.8631,7.4418 C29.8641,7.4588 29.8671,7.4718 29.8691,7.4838 C29.8701,7.4998 29.8731,7.5168 29.8791,7.5368 C29.8951,7.5968 29.9261,7.6228 29.9691,7.6148 C30.0841,7.6028 30.1701,7.6018 30.2281,7.6128 C30.2871,7.6258 30.3241,7.6558 30.3381,7.7048 C30.3481,7.7438 30.3451,7.8018 30.3261,7.8808 L30.0021,9.2488 L28.9351,8.1808 C28.8961,8.1478 28.8731,8.1158 28.8651,8.0858 C28.8531,8.0468 28.8671,8.0108 28.9041,7.9778 C28.9421,7.9448 29.0141,7.9058 29.1181,7.8588 C29.1371,7.8498 29.1461,7.8338 29.1511,7.8118 C29.1551,7.7908 29.1541,7.7688 29.1461,7.7458 C29.1451,7.7398 29.1421,7.7318 29.1391,7.7238 C29.1341,7.7178 29.1301,7.7088 29.1271,7.6968 C29.1211,7.6868 29.1151,7.6738 29.1091,7.6588 C29.0701,7.6758 29.0201,7.6928 28.9631,7.7128 C28.9061,7.7338 28.8461,7.7558 28.7811,7.7748 C28.7181,7.7948 28.6561,7.8148 28.5961,7.8338 C28.5361,7.8528 28.4841,7.8688 28.4371,7.8828 C28.3181,7.9178 28.1911,7.9508 28.0611,7.9818 C27.9311,8.0118 27.8241,8.0358 27.7391,8.0528 C27.7381,8.0648 27.7401,8.0768 27.7421,8.0888 C27.7421,8.0968 27.7421,8.1048 27.7441,8.1148" id="Fill-7"></path>
                <path d="M31.9219,7.1362 C31.9789,7.1572 32.0189,7.1942 32.0439,7.2452 L33.7109,10.5012 C33.7419,10.5702 33.7809,10.6012 33.8289,10.5952 C33.8529,10.5922 33.8709,10.5852 33.8869,10.5752 L34.5389,7.6072 L35.8479,10.2452 C35.8789,10.3132 35.9179,10.3442 35.9649,10.3382 C35.9839,10.3352 36.0059,10.3292 36.0279,10.3192 L36.8479,6.7002 C36.8649,6.6222 36.9029,6.5662 36.9609,6.5302 C37.0179,6.4932 37.1039,6.4602 37.2189,6.4302 C37.2639,6.4162 37.2829,6.3782 37.2759,6.3162 C37.2759,6.3042 37.2719,6.2892 37.2649,6.2702 C37.2579,6.2512 37.2539,6.2362 37.2539,6.2242 C37.1919,6.2402 37.1079,6.2562 37.0009,6.2762 C36.8949,6.2932 36.7939,6.3082 36.7009,6.3202 C36.6149,6.3292 36.5159,6.3392 36.4039,6.3472 C36.2929,6.3552 36.1859,6.3612 36.0819,6.3652 C36.0789,6.3962 36.0779,6.4272 36.0819,6.4602 C36.0899,6.5222 36.1149,6.5522 36.1579,6.5512 C36.2849,6.5522 36.3789,6.5632 36.4389,6.5832 C36.4979,6.6032 36.5309,6.6412 36.5379,6.6972 C36.5389,6.7122 36.5389,6.7302 36.5379,6.7492 C36.5369,6.7692 36.5339,6.7922 36.5279,6.8162 L35.9829,9.2912 L34.6519,6.5722 C34.6309,6.5232 34.6019,6.4992 34.5629,6.5052 C34.5469,6.5072 34.5269,6.5142 34.5049,6.5242 L33.8469,9.5482 L32.6719,7.2362 C32.6579,7.2142 32.6499,7.1912 32.6469,7.1682 C32.6389,7.1092 32.6659,7.0622 32.7249,7.0252 C32.7829,6.9892 32.8689,6.9582 32.9809,6.9332 C33.0239,6.9192 33.0399,6.8842 33.0329,6.8242 C33.0299,6.8012 33.0229,6.7712 33.0099,6.7332 C32.8909,6.7552 32.7619,6.7782 32.6229,6.8002 C32.4839,6.8222 32.3669,6.8392 32.2699,6.8512 C32.2229,6.8572 32.1699,6.8632 32.1089,6.8662 C32.0489,6.8722 31.9849,6.8782 31.9209,6.8842 C31.8559,6.8902 31.7909,6.8942 31.7269,6.8992 C31.6619,6.9022 31.6019,6.9062 31.5469,6.9072 C31.5429,6.9492 31.5429,6.9782 31.5449,6.9972 C31.5529,7.0602 31.5789,7.0952 31.6229,7.1012 C31.7659,7.1032 31.8649,7.1152 31.9219,7.1362" id="Fill-9"></path>
                <path d="M38.9082,7.1187 L39.4182,8.5777 L38.2982,8.5467 L38.9082,7.1187 Z M36.9882,10.0217 C36.9772,10.0417 36.9722,10.0647 36.9712,10.0927 C36.9712,10.1237 36.9722,10.1557 36.9802,10.1867 C37.0702,10.1777 37.1582,10.1717 37.2402,10.1697 C37.3222,10.1677 37.4032,10.1687 37.4822,10.1707 C37.5962,10.1737 37.7112,10.1797 37.8292,10.1887 C37.9472,10.1967 38.0582,10.2077 38.1652,10.2187 C38.1742,10.1797 38.1782,10.1477 38.1792,10.1247 C38.1792,10.1007 38.1752,10.0797 38.1662,10.0617 C38.1572,10.0447 38.1382,10.0327 38.1112,10.0287 C37.8712,9.9857 37.7542,9.9247 37.7562,9.8417 C37.7582,9.8097 37.7672,9.7707 37.7892,9.7237 L38.1912,8.7857 L39.5062,8.8217 L39.8502,9.8047 C39.8652,9.8397 39.8732,9.8687 39.8722,9.8917 C39.8712,9.9447 39.8382,9.9807 39.7742,10.0057 C39.7112,10.0287 39.6282,10.0497 39.5252,10.0657 C39.5132,10.0657 39.5012,10.0717 39.4862,10.0857 C39.4722,10.0987 39.4652,10.1237 39.4642,10.1597 C39.4632,10.1817 39.4662,10.2147 39.4722,10.2537 C39.5862,10.2487 39.7152,10.2457 39.8562,10.2437 C39.9982,10.2407 40.1242,10.2417 40.2342,10.2437 C40.3402,10.2477 40.4542,10.2537 40.5762,10.2627 C40.6972,10.2717 40.8212,10.2817 40.9462,10.2927 C40.9552,10.2537 40.9592,10.2227 40.9612,10.1987 C40.9612,10.1637 40.9552,10.1387 40.9412,10.1247 C40.9282,10.1107 40.9102,10.0987 40.8872,10.0907 C40.8082,10.0767 40.7282,10.0527 40.6462,10.0187 C40.5652,9.9857 40.5132,9.9407 40.4912,9.8867 L39.1592,6.3237 C39.1282,6.3137 39.1042,6.3097 39.0892,6.3097 C39.0412,6.3077 39.0042,6.3417 38.9742,6.4067 L37.4632,9.7867 C37.4332,9.8487 37.3872,9.8937 37.3262,9.9217 C37.2642,9.9487 37.1722,9.9717 37.0512,9.9877 C37.0172,9.9917 36.9982,10.0017 36.9882,10.0217 Z" id="Fill-11"></path>
                <path d="M40.9678,6.6108 C41.0668,6.6398 41.1428,6.6728 41.1968,6.7108 C41.2518,6.7478 41.2948,6.7978 41.3248,6.8628 L42.0548,8.7508 L41.8788,10.0058 C41.8668,10.0908 41.8258,10.1438 41.7558,10.1638 C41.6858,10.1828 41.5718,10.1988 41.4158,10.2088 C41.3768,10.2108 41.3528,10.2398 41.3458,10.2948 C41.3438,10.3008 41.3438,10.3108 41.3418,10.3238 C41.3398,10.3348 41.3398,10.3448 41.3418,10.3528 C41.3408,10.3688 41.3408,10.3808 41.3438,10.3878 C41.4338,10.3978 41.5238,10.4058 41.6138,10.4148 C41.6928,10.4218 41.7738,10.4288 41.8618,10.4368 C41.9468,10.4458 42.0238,10.4548 42.0898,10.4648 C42.1548,10.4718 42.2318,10.4858 42.3198,10.5018 C42.4058,10.5168 42.4888,10.5328 42.5648,10.5488 C42.6548,10.5638 42.7448,10.5818 42.8378,10.5968 C42.8398,10.5898 42.8438,10.5788 42.8488,10.5638 C42.8498,10.5558 42.8518,10.5468 42.8558,10.5348 C42.8598,10.5238 42.8618,10.5128 42.8638,10.5058 C42.8708,10.4518 42.8538,10.4178 42.8118,10.4038 C42.6638,10.3588 42.5598,10.3158 42.4998,10.2738 C42.4398,10.2318 42.4158,10.1678 42.4278,10.0828 L42.6118,8.7748 L43.7908,7.2308 C43.8398,7.1668 43.8948,7.1238 43.9548,7.1028 C44.0158,7.0818 44.1148,7.0698 44.2538,7.0698 C44.2988,7.0638 44.3238,7.0348 44.3318,6.9798 C44.3338,6.9718 44.3338,6.9648 44.3328,6.9568 C44.3318,6.9478 44.3318,6.9378 44.3338,6.9258 C44.3318,6.9138 44.3318,6.8998 44.3338,6.8838 C44.2358,6.8798 44.1368,6.8728 44.0358,6.8628 C43.9358,6.8558 43.8408,6.8448 43.7518,6.8338 C43.6548,6.8198 43.5488,6.8018 43.4358,6.7798 C43.3208,6.7578 43.2218,6.7368 43.1368,6.7158 C43.1308,6.7318 43.1268,6.7458 43.1258,6.7568 C43.1188,6.7718 43.1148,6.7898 43.1128,6.8088 C43.1038,6.8718 43.1198,6.9068 43.1618,6.9178 C43.2738,6.9528 43.3518,6.9878 43.4018,7.0228 C43.4488,7.0558 43.4708,7.0988 43.4638,7.1498 C43.4568,7.1888 43.4318,7.2408 43.3818,7.3048 L42.5298,8.4228 L41.9888,7.0148 C41.9668,6.9678 41.9588,6.9288 41.9628,6.8978 C41.9688,6.8588 41.9948,6.8328 42.0428,6.8178 C42.0908,6.8018 42.1718,6.7948 42.2868,6.7948 C42.3068,6.7938 42.3228,6.7848 42.3358,6.7658 C42.3478,6.7478 42.3568,6.7268 42.3598,6.7038 C42.3618,6.6958 42.3608,6.6868 42.3598,6.6788 C42.3598,6.6718 42.3598,6.6618 42.3618,6.6498 C42.3598,6.6378 42.3588,6.6248 42.3608,6.6088 C42.3178,6.6068 42.2658,6.6028 42.2038,6.5988 C42.1438,6.5928 42.0798,6.5878 42.0138,6.5818 C41.9468,6.5738 41.8828,6.5658 41.8208,6.5598 C41.7578,6.5528 41.7028,6.5468 41.6558,6.5398 C41.5308,6.5218 41.4048,6.5018 41.2728,6.4768 C41.1408,6.4528 41.0318,6.4308 40.9468,6.4118 C40.9428,6.4218 40.9388,6.4328 40.9378,6.4448 C40.9318,6.4528 40.9288,6.4608 40.9278,6.4698 C40.9258,6.4798 40.9258,6.4898 40.9238,6.4968 C40.9198,6.5238 40.9218,6.5488 40.9288,6.5688 C40.9358,6.5898 40.9488,6.6028 40.9678,6.6108" id="Fill-13"></path>
                <path d="M43.9785,10.0874 C43.8715,10.0664 43.7745,10.0854 43.6885,10.1464 C43.6015,10.2064 43.5475,10.2864 43.5275,10.3864 C43.5045,10.4974 43.5215,10.5974 43.5785,10.6834 C43.6355,10.7694 43.7165,10.8214 43.8255,10.8454 C43.9255,10.8644 44.0175,10.8474 44.1015,10.7904 C44.1855,10.7324 44.2385,10.6494 44.2615,10.5364 C44.2815,10.4374 44.2645,10.3414 44.2105,10.2524 C44.1575,10.1634 44.0805,10.1084 43.9785,10.0874" id="Fill-15"></path>
                <path d="M45.5762,11.0913 C45.7852,11.2593 46.0492,11.3903 46.3652,11.4833 C46.5942,11.5503 46.8082,11.6053 47.0052,11.6443 C47.2032,11.6843 47.3982,11.7163 47.5922,11.7393 C47.6682,11.5913 47.7522,11.4433 47.8442,11.2983 C47.9362,11.1533 48.0252,11.0213 48.1082,10.9043 C48.0992,10.8923 48.0862,10.8803 48.0662,10.8683 C48.0472,10.8573 48.0272,10.8483 48.0102,10.8433 C47.9462,10.8243 47.8912,10.8393 47.8492,10.8883 C47.7702,10.9873 47.6922,11.0733 47.6152,11.1483 C47.5392,11.2223 47.4552,11.2783 47.3632,11.3173 C47.2712,11.3553 47.1662,11.3743 47.0452,11.3723 C46.9252,11.3723 46.7832,11.3493 46.6212,11.3003 C46.4182,11.2393 46.2382,11.1403 46.0862,11.0013 C45.9312,10.8623 45.8112,10.6933 45.7242,10.4953 C45.6372,10.2983 45.5872,10.0773 45.5722,9.8363 C45.5562,9.5943 45.5882,9.3433 45.6642,9.0833 C45.7332,8.8493 45.8262,8.6463 45.9452,8.4743 C46.0622,8.3023 46.2032,8.1663 46.3662,8.0673 C46.5282,7.9663 46.7112,7.9053 46.9122,7.8833 C47.1132,7.8613 47.3302,7.8843 47.5642,7.9523 C47.8442,8.0343 48.0412,8.1513 48.1562,8.2993 C48.2722,8.4483 48.3282,8.6573 48.3222,8.9263 C48.3202,8.9623 48.3302,8.9873 48.3512,9.0023 C48.3752,9.0173 48.4002,9.0283 48.4302,9.0373 C48.4612,9.0463 48.4942,9.0483 48.5282,9.0423 C48.5352,8.8793 48.5492,8.7223 48.5692,8.5683 C48.5902,8.4143 48.6132,8.2863 48.6392,8.1833 C48.5492,8.1283 48.4622,8.0763 48.3782,8.0293 C48.2932,7.9823 48.2052,7.9373 48.1152,7.8973 C48.0252,7.8553 47.9302,7.8183 47.8262,7.7803 C47.7242,7.7453 47.6122,7.7083 47.4872,7.6713 C47.1702,7.5793 46.8772,7.5543 46.6052,7.5993 C46.3342,7.6443 46.0942,7.7363 45.8832,7.8723 C45.6722,8.0093 45.4962,8.1793 45.3512,8.3823 C45.2072,8.5853 45.1032,8.7983 45.0372,9.0213 C44.9592,9.2883 44.9242,9.5493 44.9312,9.8043 C44.9412,10.0593 44.9992,10.2953 45.1042,10.5133 C45.2112,10.7303 45.3682,10.9233 45.5762,11.0913" id="Fill-17"></path>
                <path d="M48.5459,11.8618 C48.4879,11.8708 48.3899,11.8578 48.2489,11.8238 C48.2069,11.8128 48.1739,11.8318 48.1499,11.8828 C48.1409,11.9038 48.1319,11.9348 48.1219,11.9718 C48.2049,12.0028 48.2949,12.0368 48.3929,12.0738 C48.4919,12.1128 48.5779,12.1498 48.6499,12.1818 C48.7289,12.2178 48.8129,12.2588 48.8999,12.3058 C48.9889,12.3528 49.0759,12.4008 49.1619,12.4488 C49.1859,12.4158 49.2019,12.3888 49.2129,12.3668 C49.2349,12.3178 49.2309,12.2808 49.1979,12.2578 C49.0669,12.1678 48.9829,12.0968 48.9449,12.0448 C48.9079,11.9938 48.9059,11.9308 48.9399,11.8598 L50.0939,9.3358 L50.9589,13.1978 C50.9689,13.2498 50.9829,13.2878 50.9979,13.3098 C51.0139,13.3318 51.0349,13.3488 51.0589,13.3608 C51.0699,13.3658 51.0849,13.3708 51.1039,13.3788 C51.1219,13.3838 51.1369,13.3868 51.1449,13.3858 L52.5879,10.2288 C52.6199,10.1578 52.6669,10.1158 52.7269,10.1038 C52.7849,10.0908 52.8789,10.1048 53.0099,10.1418 C53.0469,10.1558 53.0779,10.1338 53.1049,10.0758 C53.1139,10.0538 53.1239,10.0248 53.1329,9.9858 C53.0469,9.9548 52.9609,9.9238 52.8729,9.8888 C52.7839,9.8548 52.7009,9.8198 52.6219,9.7838 C52.5399,9.7468 52.4529,9.7048 52.3629,9.6558 C52.2739,9.6088 52.1859,9.5598 52.0979,9.5128 C52.0739,9.5448 52.0589,9.5718 52.0479,9.5928 C52.0239,9.6498 52.0269,9.6908 52.0659,9.7108 C52.1929,9.7908 52.2789,9.8608 52.3209,9.9188 C52.3629,9.9768 52.3659,10.0458 52.3309,10.1248 L51.3069,12.3648 L50.5549,8.9178 C50.5469,8.8798 50.5269,8.8488 50.4959,8.8258 C50.4659,8.8018 50.3989,8.7678 50.2949,8.7208 C50.2449,8.6988 50.1899,8.6718 50.1249,8.6398 C50.0609,8.6088 50.0019,8.5788 49.9449,8.5488 C49.8829,8.5158 49.8179,8.4798 49.7499,8.4388 C49.7399,8.4528 49.7329,8.4638 49.7279,8.4748 C49.7169,8.4878 49.7079,8.5018 49.6989,8.5208 C49.6759,8.5738 49.6809,8.6128 49.7169,8.6378 C49.8379,8.7148 49.9119,8.7788 49.9399,8.8278 C49.9659,8.8768 49.9669,8.9288 49.9419,8.9868 L48.6819,11.7438 C48.6499,11.8138 48.6039,11.8528 48.5459,11.8618" id="Fill-19"></path>
                <path d="M38.2002,61 C25.6282,61 15.4002,50.772 15.4002,38.2 C15.4002,25.628 25.6282,15.4 38.2002,15.4 C50.7722,15.4 61.0002,25.628 61.0002,38.2 C61.0002,50.772 50.7722,61 38.2002,61 M38.2002,15 C25.4072,15 15.0002,25.408 15.0002,38.2 C15.0002,50.993 25.4072,61.4 38.2002,61.4 C50.9932,61.4 61.4002,50.993 61.4002,38.2 C61.4002,25.408 50.9932,15 38.2002,15" id="Fill-21"></path>
                <path d="M38.2002,72.8003 C19.1222,72.8003 3.6002,57.2793 3.6002,38.2003 C3.6002,19.1213 19.1222,3.6003 38.2002,3.6003 C57.2782,3.6003 72.8002,19.1213 72.8002,38.2003 C72.8002,57.2793 57.2782,72.8003 38.2002,72.8003 M38.2002,2.8003 C18.6802,2.8003 2.8002,18.6803 2.8002,38.2003 C2.8002,57.7193 18.6802,73.6003 38.2002,73.6003 C57.7202,73.6003 73.6002,57.7193 73.6002,38.2003 C73.6002,18.6803 57.7202,2.8003 38.2002,2.8003" id="Fill-23"></path>
                <path d="M38.2002,76 C17.3572,76 0.4002,59.043 0.4002,38.2 C0.4002,17.357 17.3572,0.4 38.2002,0.4 C59.0432,0.4 76.0002,17.357 76.0002,38.2 C76.0002,59.043 59.0432,76 38.2002,76 M38.2002,8.52651283e-14 C17.1372,8.52651283e-14 0.0002,17.137 0.0002,38.2 C0.0002,59.264 17.1372,76.4 38.2002,76.4 C59.2632,76.4 76.4002,59.264 76.4002,38.2 C76.4002,17.137 59.2632,8.52651283e-14 38.2002,8.52651283e-14" id="Fill-25"></path>
                <path d="M30.0195,42.5684 C29.8735,42.4804 29.7715,42.3584 29.7105,42.2044 C29.6505,42.0504 29.6205,41.8054 29.6205,41.4694 C29.6205,41.1334 29.6335,40.7324 29.6625,40.2654 L29.3965,40.2514 C29.2845,40.9144 29.1785,41.4254 29.0815,41.7844 C28.9835,42.1444 28.8425,42.4124 28.6615,42.5894 C28.4795,42.7664 28.1125,42.8854 27.5625,42.9464 C27.0115,43.0074 26.1645,43.0374 25.0215,43.0374 C23.8775,43.0374 22.9515,43.0234 22.2425,42.9954 C21.5335,42.9674 21.1015,42.9324 20.9475,42.8904 C20.7925,42.8484 20.6765,42.7714 20.5975,42.6594 C20.5175,42.5474 20.4785,42.4074 20.4785,42.2394 L20.4785,37.5634 L26.9465,37.5634 L26.9465,38.3334 C26.9465,38.4554 26.9855,38.5154 27.0655,38.5154 C27.1445,38.5154 27.2955,38.4574 27.5205,38.3404 C27.7445,38.2244 27.9005,38.1284 27.9895,38.0534 C28.0785,37.9794 28.1225,37.8904 28.1225,37.7874 L28.0805,37.0874 C28.0615,36.7894 28.0515,36.5134 28.0515,36.2614 L28.0515,33.9374 L28.4725,33.6574 C28.5375,33.6204 28.5705,33.5804 28.5705,33.5384 C28.5705,33.4964 28.5375,33.4474 28.4725,33.3914 L27.3795,32.4674 L26.7645,33.3214 L19.6655,33.3214 C19.2465,33.3214 18.8585,33.2934 18.5035,33.2374 L19.0225,33.8534 C19.2645,33.7604 19.5815,33.7134 19.9745,33.7134 L26.9465,33.7134 L26.9465,37.1434 L20.4785,37.1434 L20.4785,36.3734 L20.7995,36.1214 C20.9125,36.0474 20.9675,35.9774 20.9675,35.9114 C20.9675,35.8464 20.8885,35.7764 20.7305,35.7014 L19.3725,35.1414 C19.4095,35.9164 19.4275,36.6914 19.4275,37.4654 L19.4275,42.4074 C19.4275,42.9394 19.5635,43.3194 19.8335,43.5484 C20.1045,43.7774 20.4805,43.9124 20.9605,43.9544 C21.4415,43.9964 22.2235,44.0174 23.3065,44.0174 C24.3885,44.0174 25.2955,44.0124 26.0295,44.0034 C26.7615,43.9944 27.4155,43.9664 27.9895,43.9194 C28.5635,43.8724 28.9685,43.8074 29.2075,43.7234 C29.4455,43.6394 29.6645,43.4974 29.8655,43.2964 C30.0655,43.0954 30.1775,42.9744 30.2015,42.9324 C30.2245,42.8904 30.2365,42.8414 30.2365,42.7854 C30.2365,42.7294 30.1645,42.6574 30.0195,42.5684" id="Fill-28"></path>
                <path d="M43.4805,42.1133 C43.4805,41.8333 43.5025,41.4833 43.5495,41.0633 L43.2555,41.0633 C43.0415,42.4073 42.8245,43.1703 42.6055,43.3523 C42.3855,43.5343 41.8465,43.6253 40.9885,43.6253 C40.8015,43.6253 40.5685,43.6163 40.2885,43.5973 C40.0075,43.5783 39.8345,43.5443 39.7705,43.4923 C39.7055,43.4413 39.6715,43.3413 39.6715,43.1913 L39.6715,39.1733 L43.6205,39.1733 C43.7515,39.1733 43.8165,39.1503 43.8165,39.1033 C43.8165,39.0573 43.7885,38.9963 43.7325,38.9213 L42.7665,37.7453 L41.9405,38.7673 L33.3725,38.7673 C32.9705,38.7673 32.5975,38.7443 32.2515,38.6973 L32.7555,39.3133 C33.0075,39.2203 33.3115,39.1733 33.6665,39.1733 L36.2285,39.1733 C36.1255,40.7513 35.7735,41.9013 35.1705,42.6243 C34.5695,43.3473 33.4375,44.0643 31.7765,44.7733 L31.8885,44.9693 C33.7365,44.4743 35.0595,43.7933 35.8575,42.9253 C36.6555,42.0573 37.1055,40.8073 37.2085,39.1733 L38.7065,39.1733 L38.7065,43.4153 C38.7065,43.7703 38.7615,44.0223 38.8745,44.1713 C38.9865,44.3213 39.1865,44.4163 39.4765,44.4583 C39.7655,44.5003 40.3115,44.5213 41.1145,44.5213 C42.4395,44.5213 43.2635,44.4093 43.5845,44.1853 C43.9075,43.9613 44.0685,43.8053 44.0685,43.7163 C44.0685,43.6283 44.0165,43.5413 43.9145,43.4573 C43.6255,43.2613 43.4805,42.8133 43.4805,42.1133" id="Fill-30"></path>
                <path d="M41.7441,36.7236 C41.8751,36.7236 41.9401,36.7006 41.9401,36.6536 C41.9401,36.6066 41.9121,36.5466 41.8561,36.4716 L40.9741,35.4076 L40.2321,36.3316 L35.2201,36.3316 C34.8001,36.3316 34.4221,36.3036 34.0861,36.2476 L34.5761,36.8636 C34.8281,36.7706 35.1361,36.7236 35.5001,36.7236 L41.7441,36.7236 Z" id="Fill-32"></path>
                <path d="M42.8643,33.2793 L42.3033,33.9233 L34.0303,33.9233 C34.0203,33.8213 33.9743,33.5783 33.8903,33.1953 L33.6943,33.1953 C33.6573,33.5873 33.5613,33.9373 33.4073,34.2453 C33.2533,34.5533 32.9993,34.8613 32.6443,35.1693 C32.4763,35.3283 32.3923,35.4823 32.3923,35.6313 C32.3923,35.7803 32.4263,35.9143 32.4973,36.0303 C32.5673,36.1473 32.6813,36.2053 32.8403,36.2053 C33.1573,36.2053 33.4563,36.0263 33.7363,35.6663 C34.0163,35.3073 34.1333,34.8573 34.0863,34.3153 L42.5003,34.3153 L41.7723,35.7713 L41.9683,35.8833 C42.4343,35.3793 42.7923,35.0463 43.0393,34.8823 C43.2863,34.7193 43.5293,34.6373 43.7673,34.6373 C44.0053,34.6373 44.1243,34.5983 44.1243,34.5183 C44.1243,34.4393 44.0683,34.3533 43.9563,34.2593 L42.8643,33.2793 Z" id="Fill-34"></path>
                <path d="M38.0137,33.6367 C38.1017,33.7247 38.2257,33.7697 38.3837,33.7697 C38.5427,33.7697 38.6827,33.7037 38.8037,33.5737 C38.9257,33.4427 38.9867,33.2747 38.9867,33.0697 C38.9867,32.5657 38.4117,32.1507 37.2647,31.8237 L37.1807,31.9917 C37.5727,32.4767 37.7957,32.9067 37.8527,33.2797 C37.8707,33.4287 37.9247,33.5477 38.0137,33.6367" id="Fill-36"></path>
                <path d="M58.082,43.2197 C58.082,42.8837 58.203,42.1647 58.446,41.0637 L58.236,41.0217 L57.48,42.8277 C57.452,42.9027 57.392,42.9867 57.298,43.0797 C57.205,43.1727 57.118,43.2197 57.039,43.2197 C56.96,43.2197 56.89,43.2057 56.829,43.1777 C56.769,43.1497 56.577,43.0117 56.255,42.7647 C55.934,42.5177 55.648,42.2697 55.401,42.0227 C55.153,41.7757 54.928,41.5117 54.723,41.2317 C55.319,40.4197 55.889,39.4067 56.431,38.1937 C56.636,37.7367 56.817,37.4957 56.977,37.4727 C57.135,37.4487 57.214,37.4097 57.214,37.3537 C57.214,37.2977 57.148,37.2327 57.019,37.1577 L55.856,36.5697 C55.417,38.1847 54.894,39.4867 54.288,40.4757 C53.774,39.4397 53.415,37.6947 53.21,35.2397 L57.998,35.2397 C58.157,35.2397 58.236,35.2137 58.236,35.1627 C58.236,35.1117 58.185,35.0247 58.082,34.9037 L57.158,33.8117 L56.29,34.8477 L53.196,34.8477 C53.186,34.6797 53.183,34.4717 53.183,34.2247 C53.183,33.9777 53.21,33.5317 53.267,32.8877 L53.574,32.5237 C53.64,32.4487 53.672,32.3877 53.672,32.3417 C53.672,32.2947 53.625,32.2577 53.532,32.2297 L52.216,31.7817 C52.244,32.1457 52.286,33.1677 52.342,34.8477 L48.492,34.8477 L47.414,34.0917 C47.442,34.5957 47.456,35.0907 47.456,35.5757 L47.456,37.2277 C47.456,38.7307 47.405,39.8857 47.302,40.6927 C47.199,41.4997 47.011,42.1887 46.735,42.7577 C46.46,43.3267 46.023,43.9567 45.426,44.6477 L45.608,44.8297 C46.69,43.9337 47.421,42.9997 47.799,42.0297 C48.177,41.0587 48.366,39.7427 48.366,38.0817 L50.662,38.0817 L50.368,41.2737 C50.34,41.5907 50.259,41.8007 50.123,41.9037 C49.987,42.0067 49.782,42.0577 49.507,42.0577 C49.231,42.0577 48.879,42.0337 48.45,41.9877 L48.422,42.2817 C48.842,42.3847 49.132,42.5037 49.29,42.6387 C49.449,42.7737 49.547,42.9677 49.584,43.2197 C49.612,43.3877 49.663,43.4717 49.738,43.4717 C49.869,43.4717 50.142,43.3017 50.558,42.9607 C50.973,42.6197 51.208,42.1137 51.265,41.4417 L51.544,38.2637 L51.838,38.0537 C51.922,38.0067 51.964,37.9627 51.964,37.9207 C51.964,37.8787 51.922,37.8207 51.838,37.7457 L50.998,36.9617 L50.606,37.6897 L48.366,37.6897 L48.366,35.2397 L52.356,35.2397 C52.478,37.6477 52.953,39.6397 53.784,41.2177 C52.916,42.3937 51.675,43.3687 50.061,44.1437 L50.116,44.3397 C51.796,43.9097 53.159,43.0887 54.204,41.8757 C54.849,42.8277 55.59,43.5527 56.431,44.0527 C57.27,44.5517 57.835,44.8017 58.124,44.8017 C58.32,44.8017 58.418,44.7177 58.418,44.5497 C58.418,44.4467 58.362,44.2837 58.25,44.0597 C58.139,43.8357 58.082,43.5557 58.082,43.2197" id="Fill-38"></path>
                <path d="M55.2686,34.2456 C55.3326,34.3206 55.3946,34.3576 55.4506,34.3576 C55.6266,34.3576 55.7866,34.2616 55.9256,34.0706 C56.0666,33.8796 56.1356,33.6646 56.1356,33.4266 C56.1356,33.1886 55.9796,32.9556 55.6666,32.7266 C55.3546,32.4976 54.8906,32.3136 54.2746,32.1736 L54.1906,32.3276 C54.6386,32.7666 54.9516,33.3076 55.1276,33.9516 C55.1566,34.0726 55.2036,34.1706 55.2686,34.2456" id="Fill-40"></path>
                <polygon id="Fill-42" points="39.083 67.6445 38.359 66.1785 37.637 67.6445 36.02 67.8795 37.189 69.0195 36.913 70.6305 38.359 69.8705 39.807 70.6305 39.53 69.0195 40.7 67.8795"></polygon>
                <polygon id="Fill-44" points="51.166 64.7446 50.443 63.2786 49.72 64.7446 48.103 64.9796 49.272 66.1196 48.996 67.7306 50.443 66.9706 51.89 67.7306 51.613 66.1196 52.783 64.9796"></polygon>
                <polygon id="Fill-46" points="27 64.9644 26.276 63.4994 25.553 64.9644 23.936 65.1994 25.105 66.3404 24.83 67.9514 26.276 67.1904 27.723 67.9514 27.446 66.3404 28.617 65.1994"></polygon>
            </g>
        </g>
    </g>
</svg>