<?xml version="1.0" encoding="UTF-8"?>
<svg width="29px" height="33px" viewBox="0 0 29 33" version="1.1" xmlns="http://www.w3.org/2000/svg" xmlns:xlink="http://www.w3.org/1999/xlink">
    <!-- Generator: Sketch 49.3 (51167) - http://www.bohemiancoding.com/sketch -->
    <title>巡店统计@2x</title>
    <desc>Created with Sketch.</desc>
    <defs></defs>
    <g id="新增页面" stroke="none" stroke-width="1" fill="none" fill-rule="evenodd">
        <g id="统计分类" transform="translate(-173.000000, -238.000000)" fill="#00BFDB">
            <path d="M194.777826,262.789508 L179.222391,262.789508 C178.608634,262.789508 178.111196,263.284331 178.111196,263.894862 C178.111196,264.50522 178.608634,265 179.222391,265 L194.777826,265 C195.39141,265 195.889022,264.50522 195.889022,263.894862 C195.889022,263.284331 195.39141,262.789508 194.777826,262.789508 Z M194.777826,257.263169 L179.222391,257.263169 C178.608634,257.263169 178.111196,257.757992 178.111196,258.368523 C178.111196,258.978881 178.608634,259.473661 179.222391,259.473661 L194.777826,259.473661 C195.39141,259.473661 195.889022,258.978881 195.889022,258.368523 C195.889022,257.757992 195.39141,257.263169 194.777826,257.263169 Z M194.777826,244 C193.550528,244 192.555652,244.989646 192.555652,246.210492 C192.555652,246.402921 192.617848,246.573115 192.664506,246.749828 L189.764469,249.63462 C189.586778,249.588251 189.415555,249.526339 189.222283,249.526339 C189.062213,249.526339 188.919983,249.583847 188.771112,249.616919 L186.908876,247.764602 C186.942296,247.616384 187.000109,247.475031 187.000109,247.315846 C187.000109,246.094957 186.005232,245.105354 184.777935,245.105354 C183.550593,245.105354 182.555543,246.094957 182.555543,247.315846 C182.555543,247.508102 182.617783,247.678253 182.664571,247.855182 L179.764577,250.739931 C179.586713,250.693562 179.415663,250.631693 179.222391,250.631693 C177.99505,250.631693 177,251.621296 177,252.842185 C177,254.063031 177.99505,255.052677 179.222391,255.052677 C180.449689,255.052677 181.444565,254.063031 181.444565,252.842185 C181.444565,252.649756 181.382326,252.479562 181.335711,252.302849 L184.235531,249.418057 C184.413395,249.464426 184.584489,249.526339 184.777935,249.526339 C184.960009,249.526339 185.120034,249.464426 185.288914,249.422461 L187.104535,251.228537 C187.062305,251.396486 187.000109,251.555541 187.000109,251.736831 C187.000109,252.95772 187.994985,253.947323 189.222283,253.947323 C190.44958,253.947323 191.444457,252.95772 191.444457,251.736831 C191.444457,251.544575 191.38226,251.374424 191.335603,251.197495 L194.23564,248.312746 C194.41333,248.359115 194.584554,248.420984 194.777826,248.420984 C196.005124,248.420984 197,247.431381 197,246.210492 C197,244.989646 196.005124,244 194.777826,244 Z M197.52368,238 L177.458772,238 C174.996384,238 173,239.970031 173,242.399914 L173,266.600086 C173,269.029969 174.996384,271 177.458772,271 L197.52368,271 C199.986285,271 201.98267,269.029969 201.98267,266.600086 L201.98267,242.399914 C201.98267,239.970031 199.986285,238 197.52368,238 Z M199.753066,266.600086 C199.753066,267.815113 198.755005,268.800043 197.52368,268.800043 L177.458772,268.800043 C176.227491,268.800043 175.229386,267.815113 175.229386,266.600086 L175.229386,242.399914 C175.229386,241.184887 176.227491,240.199957 177.458772,240.199957 L197.52368,240.199957 C198.755005,240.199957 199.753066,241.184887 199.753066,242.399914 L199.753066,266.600086 Z" id="巡店统计"></path>
        </g>
    </g>
</svg>