<?xml version="1.0" encoding="UTF-8"?>
<svg width="18px" height="23px" viewBox="0 0 18 23" version="1.1" xmlns="http://www.w3.org/2000/svg" xmlns:xlink="http://www.w3.org/1999/xlink">
    <!-- Generator: Sketch 49.3 (51167) - http://www.bohemiancoding.com/sketch -->
    <title>坐标@2x</title>
    <desc>Created with Sketch.</desc>
    <defs></defs>
    <g id="新增页面" stroke="none" stroke-width="1" fill="none" fill-rule="evenodd">
        <g id="任务编辑_管理端" transform="translate(-20.000000, -757.000000)" fill="#00BFDB">
            <g id="#1" transform="translate(20.000000, 237.000000)">
                <g id="01-copy" transform="translate(0.000000, 478.000000)">
                    <g id="选项" transform="translate(0.000000, 31.000000)">
                        <path d="M18,20.1709511 C18,15.1065812 13.9707543,11 9,11 C4.02921866,11 0,15.1065812 0,20.1709511 C0,20.3316055 0.0151982716,20.487285 0.0235546167,20.6444245 C0.0159554809,20.7225887 0,20.7973462 0,20.8769975 C0,26.5213939 8.3076403,32.9148256 8.3076403,32.9148256 C8.3076403,32.9148256 9,33.4436438 9.69222448,32.9148256 C10.3845842,32.3846554 18,26.5213939 18,20.8769975 C18,20.7973462 17.9832873,20.7225887 17.9764183,20.6444245 C17.9840445,20.487285 18,20.3316055 18,20.1709511 Z M9,23.7089337 C7.09446418,23.7089337 5.55043228,22.1293915 5.55043228,20.1807991 C5.55043228,18.2337209 7.09446418,16.6541787 9,16.6541787 C10.9055358,16.6541787 12.4495677,18.2337209 12.4495677,20.1807991 C12.4495677,22.1293915 10.9055358,23.7089337 9,23.7089337 Z" id="坐标"></path>
                    </g>
                </g>
            </g>
        </g>
    </g>
</svg>