<?xml version="1.0" encoding="UTF-8"?>
<svg width="32px" height="32px" viewBox="0 0 32 32" version="1.1" xmlns="http://www.w3.org/2000/svg" xmlns:xlink="http://www.w3.org/1999/xlink">
    <!-- Generator: Sketch 49.3 (51167) - http://www.bohemiancoding.com/sketch -->
    <title>巡检统计@2x</title>
    <desc>Created with Sketch.</desc>
    <defs></defs>
    <g id="新增页面" stroke="none" stroke-width="1" fill="none" fill-rule="evenodd">
        <g id="统计分类" transform="translate(-45.000000, -239.000000)" fill="#00BFDB">
            <g id="巡检统计" transform="translate(45.000000, 239.000000)">
                <path d="M31.992,27.995473 C31.992,30.1967712 30.3948,32 28.1890667,32 L3.81648889,32 C1.61075556,32 0,30.1967712 0,27.995473 L0,4.0363939 C0,1.83442996 1.61093333,0.0554785021 3.81648889,0.0554785021 L28.1890667,0.0554785021 C30.3948,0.0554785021 31.9972444,1.65654369 31.9972444,3.8583301 L31.992,27.995473 Z M30.2557333,4.04194175 C30.2609333,2.94590846 29.1176889,1.73248266 28.0052,1.79452982 L4.00035556,1.79452982 C2.9224,1.79452982 1.75137778,2.89801942 1.75,4.04194175 C1.75,4.04194175 1.75364444,27.2824189 1.75364444,27.8583301 C1.66511111,28.9505908 2.89844444,30.2622802 4.00035556,30.2609043 L28.0052,30.2609043 C29.0908,30.2609043 30.2557333,29.0974092 30.2557333,28.0134924 L30.2557333,4.04194175 Z M25.3199556,25.3018363 L25.3199556,27.436516 C25.3199556,27.8562441 24.8991111,28.197104 24.3808889,28.197104 C23.8624889,28.197104 23.442,27.8562441 23.442,27.436516 L23.442,25.0474785 C22.2078222,24.7345354 21.0614667,23.5286103 21.0614667,22.1123107 C21.0614667,20.696233 22.1532889,19.5027351 23.442,19.1773204 L23.442,4.61891817 C23.442,4.19919001 23.8624889,3.8583301 24.3808889,3.8583301 C24.8991111,3.8583301 25.3199556,4.19901248 25.3199556,4.61891817 L25.3199556,19.1773204 C26.5737778,19.5571928 27.7001778,20.696233 27.7001778,22.1123107 C27.7001778,23.5286103 26.5192889,24.8980416 25.3199556,25.1563495 L25.3199556,25.3018363 Z M24.3808889,20.6457698 C23.5694222,20.6457698 22.9121333,21.3020139 22.9121333,22.1123107 C22.9121333,22.9226519 23.5694222,23.5790291 24.3808889,23.5790291 C25.1923556,23.5790291 25.8496444,22.9226519 25.8496444,22.1123107 C25.8496444,21.3020139 25.1923556,20.6457698 24.3808889,20.6457698 Z M8.58315556,25.4108849 L8.58315556,27.5455645 C8.58315556,27.9652926 8.16248889,28.3061526 7.64408889,28.3061526 C7.12568889,28.3061526 6.7052,27.9652926 6.7052,27.5455645 L6.7052,25.156527 C5.4712,24.8435839 4.32466667,23.6376588 4.32466667,22.2213592 C4.32466667,20.805104 5.41648889,19.611828 6.7052,19.2862358 L6.7052,4.72796671 C6.7052,4.30806103 7.12568889,3.96737864 7.64408889,3.96737864 C8.16248889,3.96737864 8.58315556,4.30806103 8.58315556,4.72796671 L8.58315556,19.2862358 C9.83697778,19.6662413 10.9635556,20.805104 10.9635556,22.2213592 C10.9635556,23.6376588 9.78244444,25.0070902 8.58315556,25.2653981 L8.58315556,25.4108849 Z M7.64408889,20.7546852 C6.83262222,20.7546852 6.17533333,21.4110624 6.17533333,22.2213592 C6.17533333,23.0317004 6.83262222,23.6880777 7.64408889,23.6880777 C8.45555556,23.6880777 9.11284444,23.0317004 9.11284444,22.2213592 C9.11284444,21.4110624 8.45555556,20.7546852 7.64408889,20.7546852 Z M15.0734222,6.86269071 L15.0734222,4.72796671 C15.0734222,4.30806103 15.4940889,3.96737864 16.0124889,3.96737864 C16.5308889,3.96737864 16.9513778,4.30806103 16.9513778,4.72796671 L16.9513778,7.11700416 C18.1854222,7.42976976 19.3319556,8.63591678 19.3319556,10.0519945 C19.3319556,11.4682497 18.2400889,12.66157 16.9513778,12.9871623 L16.9513778,27.545387 C16.9513778,27.9652926 16.5308889,28.305975 16.0124889,28.305975 C15.4940889,28.305975 15.0734222,27.9652926 15.0734222,27.545387 L15.0734222,12.9871623 C13.8196,12.6071123 12.6930667,11.4682497 12.6930667,10.0519945 C12.6930667,8.63591678 13.8741333,7.26626352 15.0734222,7.00795562 L15.0734222,6.86269071 Z M16.0124889,11.5187129 C16.8239556,11.5187129 17.4810667,10.8623356 17.4810667,10.0519945 C17.4810667,9.24165326 16.8239556,8.58527601 16.0124889,8.58527601 C15.2010222,8.58527601 14.5437333,9.24165326 14.5437333,10.0519945 C14.5437333,10.8623356 15.2010222,11.5187129 16.0124889,11.5187129 Z" id="计划统计"></path>
            </g>
        </g>
    </g>
</svg>