<?xml version="1.0" encoding="UTF-8"?>
<svg width="14px" height="14px" viewBox="0 0 14 14" version="1.1" xmlns="http://www.w3.org/2000/svg" xmlns:xlink="http://www.w3.org/1999/xlink">
    <!-- Generator: Sketch 49.3 (51167) - http://www.bohemiancoding.com/sketch -->
    <title>Search@2x</title>
    <desc>Created with Sketch.</desc>
    <defs></defs>
    <g id="门店管理" stroke="none" stroke-width="1" fill="none" fill-rule="evenodd">
        <g id="门店管理_筛选" transform="translate(-32.000000, -100.000000)" fill="#B6B6B6" fill-rule="nonzero">
            <g id="搜索" transform="translate(20.000000, 84.000000)">
                <path d="M21.6361087,26.8613197 C21.3432155,26.5684265 21.3432155,26.0935527 21.6361087,25.8006595 C21.9290019,25.5077663 22.4038757,25.5077663 22.6967689,25.8006595 L25.3297084,28.433599 C25.6226016,28.7264922 25.6226016,29.201366 25.3297084,29.4942592 C25.0368152,29.7871524 24.5619415,29.7871524 24.2690482,29.4942592 L21.6361087,26.8613197 Z M18.25,28.5 C14.7982203,28.5 12,25.7017797 12,22.25 C12,18.7982203 14.7982203,16 18.25,16 C21.7017797,16 24.5,18.7982203 24.5,22.25 C24.5,25.7017797 21.7017797,28.5 18.25,28.5 Z M18.25,27 C20.8733526,27 23,24.8733526 23,22.25 C23,19.6266474 20.8733526,17.5 18.25,17.5 C15.6266474,17.5 13.5,19.6266474 13.5,22.25 C13.5,24.8733526 15.6266474,27 18.25,27 Z" id="Search"></path>
            </g>
        </g>
    </g>
</svg>